<svg xmlns="http://www.w3.org/2000/svg" viewBox="0 0 1780.24 193"><defs><style>.cls-1{fill:none;}.cls-2{fill:#fff;}</style></defs><title>Asset 2</title><g id="Layer_2" data-name="Layer 2"><g id="Layer_1-2" data-name="Layer 1"><path class="cls-1" d="M1182,54.08c-3.81-1.3-5.48-4.78-7.72-7.66a1,1,0,0,1-.22-.6c-4.2,0-7.48-2-10.44-4.7a5.4,5.4,0,0,0-.71.4c-4.49.76-8.78-.93-13.21-1.1-7.68-.3-15.22,1-22.82,1.56a2.4,2.4,0,0,1-.46,2.71c1.71,3,2.13,6.06,0,9l.07,0a13.82,13.82,0,0,1,.12,12.51l-.23.06c2.22,2.93,1.78,6,.14,9l-.1,0c2.18,2.91,1.74,5.92.1,9l-.09,0a3.8,3.8,0,0,1,0,5.36h0c1.73,3.3,2.09,6.58.63,9.84,13.71-.35,27.52,1.12,41.08-2.23l.37.14c2.59-3.84,6.32-6.1,10.39-7.92-.19-2.71,1.11-4.48,3.66-5.47-.92-3.63.43-6.51,2.91-9h0q-.37-.36-.22-.68a1,1,0,0,1,.11-.18,4.4,4.4,0,0,1-1.38-3.54,40.45,40.45,0,0,0-2-13.06,3.81,3.81,0,0,1,.15-3.46Z"/><path class="cls-1" d="M935.6,41.07a5.63,5.63,0,0,0-.89.48c-10.75,0-21.5-.11-32.25.15a5.48,5.48,0,0,1,.28,1.46c.18,19.53.15,39.05,0,58.58a7.34,7.34,0,0,1-.47,2.74c11.7,1.55,23.36,2.07,34.91-1.1a10.18,10.18,0,0,1,3.45-.39c1.24-2.62,3.62-3.2,6.46-3a1,1,0,0,1,.29-1.27c3.12-2.91,5.16-6.92,8.89-9.21A6.08,6.08,0,0,1,959,83.24c-1.43-3-.84-5.59,1.23-8l-.38-.21a9.55,9.55,0,0,1,.1-9.18l0,0c-2.07-1.23-2-3.1-1.51-5.13-2.32-1.39-2.86-3.6-2.55-6.21-3.71-2-7-4.51-8.19-8.9l-.46.07A18.16,18.16,0,0,1,935.6,41.07Z"/><path class="cls-1" d="M1009.36,102.3c1.14,3.72.48,6.79-3,8.86,1.35,2.69.9,4.78-2,6.07a2.44,2.44,0,0,1,.48,1.85c6.51.8,13.06.22,19.59.3q13.5.17,27-.06a2.56,2.56,0,0,1,.72-2.15l0-.09c-3.31-1.62-3.83-4.36-3-7.64-2.35-1.82-3.42-4.09-2.07-7.19h0c-3.7-3.05-5.24-8.14-3.73-12.17h-.47c-2.22-1-2.76-2.66-1.81-4.78-3.37-2.17-4.24-5.23-3-9-3.4-2.1-4.17-5.17-3-8.94-3.82-3.06-4.07-7.31-3.83-11.72-2.9-2.71-3.55-6-2.41-9.78a3.93,3.93,0,0,0-1.56-.2,8.16,8.16,0,0,1-2.55,9.19c1,4.52.08,8.48-3.33,11.74a7.67,7.67,0,0,1-2.92,8.94c.91,3.69,0,6.71-2.95,9,.94,2.44.54,4.42-2.21,5.59H1013C1014.67,93.93,1013.11,99.18,1009.36,102.3Z"/><path class="cls-1" d="M136.31.85a1.59,1.59,0,0,1-.07-.85q0,.43-.06.85Z"/><path class="cls-1" d="M104.44,175.95l-.07,0V176h0Z"/><path class="cls-1" d="M136.29,1.14l-.11-.29-.26.29Z"/><path class="cls-1" d="M1654.06,74.79a8,8,0,0,1,0-8.93c-2.41-1.56-2.35-3.67-1.52-6-2.08-.93-2.23-2.62-1.38-4.72-3.86-1.92-7.23-6.07-7.68-9.4a2.92,2.92,0,0,0-.25.24,19,19,0,0,1-11.62-5,5.36,5.36,0,0,0-.88.47c-6.48.39-12.82-1.55-19.35-1.06-3.48.26-6.94.59-10.4,1.08-2.77.39-4.12,1.87-4.15,4.64-.14,16.45-.08,32.91,0,49.36,0,3.15,1.89,3.88,4.55,3.89,5.15,0,10.31-.05,15.46,0,2.28,0,4.71-.31,6.57,1.59l0,.06c2.4-2.28,5.41-2.24,8.43-2.18h.12c3-3.27,7.23-4.4,11.27-5.83.33-2.12,1.52-3.34,4.05-3.15h.42c-1.41-3.22.66-4.81,3.61-6h.08C1650,80.26,1651.44,77.34,1654.06,74.79Z"/><path class="cls-2" d="M1776.47,125.9a12.34,12.34,0,0,0-3.22-5.91c-.71-2.26-2.63-3.48-4.22-5a16,16,0,0,0-6.55-6.1h0a13.81,13.81,0,0,0-6-4h0a17.59,17.59,0,0,0-7.2-3.91,69.69,69.69,0,0,0-16.74-7.1h0a34.3,34.3,0,0,0-8.4-3.86h0l-11.12-7L1707,75,1705,68.94h0c-.25-5-.25-10,1.45-14.89h0l5.87-7.9h0c4-2.64,8.08-5.3,12.9-6.37h0a64.9,64.9,0,0,1,33.68,3c9.77,3.57,9.79,3.5,12.38-7.14a2.51,2.51,0,0,0,0-.5h0c3-6.64,3-6.7-3.42-9.09-2.42-.9-4.77-2.16-7.47-2.14-14.79-4.18-29.58-4.76-44.37,0h0A38.1,38.1,0,0,0,1698.41,33a10.2,10.2,0,0,0-4.17,4,19.14,19.14,0,0,0-5.94,8,21.14,21.14,0,0,0-3.87,9c-1.58,5.61-2.67,11.25-1.22,17.08h0c-.07,1.78-.2,3.56.89,5.14h0a17.45,17.45,0,0,0,3.19,8.69,14.24,14.24,0,0,0,4,6.07,18.14,18.14,0,0,0,5.92,6.2h0a16.14,16.14,0,0,0,6.12,4.7,18.94,18.94,0,0,0,7,4.12,23,23,0,0,0,8,3.89l17,6.95,8,4.19,6.64,5.07h0a32,32,0,0,1,8.41,16.9l-1.09,12c-4.42,11-12.89,16.9-24.31,19-7.64,1.41-15.23.89-22.81-.48-9-1.62-17.3-5.14-25.61-9.55l-4.28,15.86c-1.36,2.2-1.85,1.35-2.35-.56-2.2-8.43-4.48-16.84-6.73-25.25-.18-3.86-1.83-7.35-2.81-11h0c-.57-6.22-3.18-11.69-6.28-17a15.83,15.83,0,0,0-4.4-6.15h0a10.45,10.45,0,0,0-4.19-3.93c-1.85-3.22-6.36-2.84-8.2-6.08a33.5,33.5,0,0,0,8.95-4.18,13.55,13.55,0,0,0,5.14-3.6,19.67,19.67,0,0,0,6.93-7.16h0c1.76-.71,2.42-2.28,3-3.88h0a11.89,11.89,0,0,0,3-5.93A21.57,21.57,0,0,0,1675.15,75h0l.16-1.8c1.6-4.76.69-9.48-.24-14.2.24-1.8-.58-3.36-1.1-5h0a24.94,24.94,0,0,0-3.89-9,16.93,16.93,0,0,0-5.68-7.29h0a14.63,14.63,0,0,0-5.28-4.68h0c-4-3.74-9-5.61-14.12-7.07-21.66-6.15-43.56-4-65.41-1.47-6.75.77-6.71,1.17-6.29,8.51v6h0v6h0q0,4.5,0,9h0q0,6,0,12V90q0,5,0,10v5q0,2,0,4h0v7h0q0,2,0,4,0,3,0,6h0q0,7.5,0,15h0v11c-.23,12.66-.63,25.31.2,38a61.69,61.69,0,0,0,20.64,0l0,0c1.38-1.6.67-3.51.67-5.26,0-20.65,0-41.3,0-62,0-2-.87-4.63,2.8-4.52,10.6.3,21.34-1.17,31.65,2.59a40.06,40.06,0,0,1,8.94,6.26c4.42,5.3,6.6,11.71,9,18a53.83,53.83,0,0,0,2.92,12.24h0c.88,7.6,3.26,14.85,5.27,22.18,3.06,11.14,3.2,11.1,14.92,11.1h4c6.47,0,6.46,0,5.24-6.12a1.49,1.49,0,0,1,.69-1.69c5.59,3.76,12,5.49,18.31,7.42,3.22,1,6.9.44,9.69,2.85h27c10.56-1.11,20.4-4.31,28.71-11,8.13-6.58,14.88-14.2,15.13-25.54l0-.05c.14-.91.17-1.88,1.17-2.36V136C1778.3,132.89,1778.8,128.87,1776.47,125.9ZM1651.29,84c-3,1.18-5,2.77-3.61,6h-.42c-2.53-.19-3.73,1-4.05,3.15-4,1.42-8.24,2.56-11.27,5.83h-.12c-3-.06-6-.1-8.43,2.18l0-.06c-1.86-1.9-4.29-1.55-6.57-1.59-5.15-.1-10.3,0-15.46,0-2.66,0-4.54-.74-4.55-3.89,0-16.45-.11-32.91,0-49.36,0-2.77,1.37-4.24,4.15-4.64,3.46-.49,6.91-.82,10.4-1.08,6.52-.49,12.86,1.44,19.35,1.06a5.36,5.36,0,0,1,.88-.47,19,19,0,0,0,11.62,5,2.92,2.92,0,0,1,.25-.24c.45,3.34,3.82,7.49,7.68,9.4-.85,2.1-.69,3.79,1.38,4.72-.83,2.29-.89,4.41,1.52,6a8,8,0,0,0,0,8.93c-2.61,2.55-4,5.47-2.7,9.22Z"/><path class="cls-2" d="M86.36,158.5c0-1.24.43-2.76-1.31-3.37l-7.77-1.24c-.78-1-1.88-.92-3-.92l-7-3-5.9-3.35c-1.13-1.11-2.28-2.15-4.05-1.83l-3.94-4.13h0l-2-1.74-3.85-4.09h0L43.88,130l-3.65-5c0-2-1.24-3.4-2.2-5h0c-.35-1.8-2.36-3-2-5L34,108c0-3.93-1.57-6-5.86-5.15a26.73,26.73,0,0,1-3.88.24h-9L1.29,103,.24,103v85c27.28,0,54.56.06,81.83.2,3.19,0,4.44-.93,4.37-4.25C86.26,175.47,86.4,167,86.36,158.5Z"/><path class="cls-2" d="M.24,85l1.12-.08,4.88-.09h17c3.09,0,6.69,1,9.12-.31s1.68-5.21,2.18-8A25.89,25.89,0,0,1,36.21,72h0L43.7,57.11h0c2.5-2.8,4.71-5.94,7.55-8.35,9.81-8.31,20.93-14.05,33.79-16h0c2-1,1.19-2.91,1.2-4.43.06-9.43,0-18.87,0-28.31h-85C-.82.89.31,2.68.3,4Q.18,44.49.24,85Z"/><path class="cls-2" d="M131.77,93.73a37.26,37.26,0,1,0-36.88,37.43A37.1,37.1,0,0,0,131.77,93.73Z"/><path class="cls-2" d="M1564.12,176.31c.43-3.58-1-4.41-4.42-4.38-22.48.15-45,.08-67.45.08-.14-18.26-.14-36.52-.51-54.78-.09-4.31,1.34-5.19,5.36-5.15,18.44.21,36.88.09,55.32.09,2.12,0,4.71.52,3.78-3.15v-8l0-6c-1.18-1.85-3-.95-4.54-1-18.33-.07-36.66-.16-55,0-3.81,0-4.76-1.1-4.71-4.79q.27-21.24-.08-42.49c-.07-3.91,1-5.1,5-5.05,18.33.21,36.66.09,55,.09,8.69,0,8.69,0,8.24-8.87h0c.06-1,.17-2,.16-3-.1-8,.86-6.85-6.91-6.86q-38.22-.07-76.43,0c-7.3,0-7.34,0-7.35,7.36q-.12,77.43-.18,154.86c0,1.56-.71,3.35.84,4.68,1.72,1,3.59.48,5.38.48q37.23.05,74.45,0c4.46,0,10.26,1.91,13-.8C1566.08,186.77,1563.57,180.87,1564.12,176.31Z"/><path class="cls-2" d="M741.07,147q0-4,0-8V129q0-5,0-10,0-2.5,0-5,0-4,0-8,0-3,0-6,0-1.5,0-3,0-2.5,0-5,0-3,0-6,0-4,0-8V66q0-7,0-14,0-6.5,0-13L741,24c-1.23-1.75-3-.81-4.53-.83-11.46-.09-22.92.14-34.37-.15a8,8,0,0,0-4.08.63,1.67,1.67,0,0,0-1.09,1.08,7.8,7.8,0,0,0-.67,3.92c.25,18.76,0,37.52-.06,56.28-16.59,0-33.17-.06-49.76.13-3.24,0-4.5-1-4.25-4.08q0-7.5,0-15,0-6.5,0-13V29c1.1-4.4-.12-6.13-5.11-6-11.46.39-23,.38-34.42,0-4.66-.16-5.36,1.45-5.35,5.62.11,52.23,0,104.46.06,156.69,0,1.54-.8,3.32.74,4.66h0c13.9,1.15,27.84.17,41.75.53,2.46.06,2.58-1.33,2.56-3.17q-.15-18.68-.24-37.36,0-4,0-8,0-5.5,0-11l.48-6.86h0c16.47,0,32.93.12,49.4-.06,3.51,0,4.45,1,4.42,4.44-.17,19-.11,37.92,0,56.89,0,1.52-.89,3.32.8,4.6h0c13.87,1.18,27.76.18,41.63.54,2.6.07,2.39-1.58,2.38-3.27Q741.15,167.13,741.07,147Z"/><path class="cls-2" d="M431.83,154.7q0-64,0-128.06c0-3-1.21-3.55-3.87-3.53-12,.11-24,.3-36-.08-4.63-.15-5.42,1.37-5.42,5.6.11,52.1,0,104.2,0,156.31,0,1.6-.57,3.32.54,4.82h0c1.43,1.26,3.16.68,4.74.69,10.89.06,21.78.08,32.67,0,2.23,0,4.61.76,6.72-.67h0a4,4,0,0,0,.53-1.32q0-3.16,0-6.32c0-1.33,0-2.66,0-4q0-9.13,0-18.25C431.87,158.15,431.87,156.43,431.83,154.7Z"/><path class="cls-2" d="M233.93,13.83c-14-.08-23.23,8.26-23.21,21s9,21.3,22.45,21.35c13.87,0,23.21-8.43,23.24-21.09S247.5,13.91,233.93,13.83Z"/><path class="cls-2" d="M188.07,109.11c0-6.53,0-6.53-6.84-6.05h-18c-5.09-1.19-8.52,0-8.63,6a15.88,15.88,0,0,1-.58,2.87L148.45,125a75,75,0,0,1-21.21,22l-12.12,5.65c-3,.77-6.05,1.68-9.13,2.26-1.73.33-2.67.84-2.6,2.78.33,9.71-.61,19.45.48,29.15h0c.9,1.09,2.15.67,3.26.67q38.62,0,77.24,0a16.25,16.25,0,0,0,2.85-.51h0c1.75-1.45.78-3.41.79-5.08C188.1,157.64,188.07,133.37,188.07,109.11ZM104.37,176v-.09l.07,0-.07.07h0Z"/><path class="cls-2" d="M1085.11,151c-1-4.88-3.05-9.41-5-14a41.75,41.75,0,0,0-3.68-11.1,14.66,14.66,0,0,0-2.05-6l-1.49-4.93h0l-1.81-5-3.05-9a49.37,49.37,0,0,0-3.87-11,22.08,22.08,0,0,0-2.22-6.94L1059.17,75l-3.05-9-4.06-12-3-9L1047,39l-2-6h0c-3-9.87-3-9.87-13.33-9.87h-6c-10.31,0-10.31,0-13.2,9.87h0l-2,6h0l-2,6h0l-3,9h0a63,63,0,0,0-4,12,33.76,33.76,0,0,0-3.05,9,38,38,0,0,0-3,9,14.2,14.2,0,0,0-2,6,52.06,52.06,0,0,0-3.87,11l-3.05,9-2,6a7,7,0,0,0-1.24,4,12.1,12.1,0,0,0-2.06,6L976.45,139h0l-4,12h0c-4.23,12.23-8.41,24.48-12.73,36.69-.87,2.47.09,2.89,2.21,2.87q8.48-.08,17,0a3,3,0,0,0,3.31-2.29c3.69-11.69,7.44-23.36,11.18-35,2.25-4.52,3.43-9.41,4.79-14.23.78-1.17,2-1,3.14-1l56.59.11c1.27,4,2.18,8.17,4.21,11.92q6.29,19.08,12.56,38.16a3,3,0,0,0,3.23,2.36c6-.09,11.95-.08,17.92,0,2.4,0,2.81-.87,2-3C1093.56,175.36,1089.35,163.17,1085.11,151ZM1013.39,90c2.75-1.18,3.15-3.15,2.21-5.59,3-2.25,3.86-5.27,2.95-9a7.67,7.67,0,0,0,2.92-8.94c3.4-3.26,4.33-7.22,3.33-11.74a8.16,8.16,0,0,0,2.55-9.19,3.93,3.93,0,0,1,1.56.2c-1.14,3.77-.5,7.07,2.41,9.78-.24,4.42,0,8.66,3.83,11.72-1.15,3.77-.39,6.84,3,8.94-1.27,3.81-.4,6.86,3,9-.95,2.12-.41,3.74,1.81,4.78h.47c-1.51,4,0,9.12,3.73,12.17h0c-1.35,3.11-.27,5.37,2.07,7.19-.84,3.28-.33,6,3,7.64l0,.09a2.56,2.56,0,0,0-.72,2.15q-13.5.22-27,.06c-6.53-.08-13.08.49-19.59-.3a2.44,2.44,0,0,0-.48-1.85c2.85-1.29,3.3-3.38,2-6.07,3.52-2.06,4.19-5.14,3-8.86,3.76-3.12,5.31-8.38,3.69-12.27Z"/><path class="cls-2" d="M588.07,114q0-4,0-8,0-5.5,0-11c.26-2,.78-3.91-2.56-3.89-19.94.1-39.87.06-59.81,0-1.65,0-3,.14-3,2.27,0,1,0,2,0,3-.41,1.54-.3,3.88-.05,7.42,0,2-.07,3.95-.1,5.92,0,.18,0,.37,0,.55,0,2.49,0,5,.06,7.46a33.9,33.9,0,0,0,.58,7.91h0l21.73.45L545.3,137v12c.72,5-2,6.32-6.43,6.74-12.24,1.15-23.78-.81-34.58-6.76l-10.93-10-5.22-9-4-15-.12-2.05h0c.1-7-.13-14,1.26-20.9l4.94-12.17a61.3,61.3,0,0,1,11-12,58.3,58.3,0,0,1,28-9c11.77-.14,23.49.28,34.91,3.55,10.69,3.06,10.67,3.1,12.16-8.28a49.32,49.32,0,0,0,3-12.05,45.53,45.53,0,0,0,2.85-11c-.08-2.92-2.73-2.51-4.34-3.07-19.37-6.65-39.36-7.14-59.47-5.34-10.05.9-20,2.85-29.18,7.35A59.15,59.15,0,0,0,469,40.9a35.4,35.4,0,0,0-9.93,8.77A19.26,19.26,0,0,0,453.47,56a31.82,31.82,0,0,0-6,9A47.73,47.73,0,0,0,441.42,79a42.42,42.42,0,0,0-2.92,11c-1.62,8.66-2.71,17.35-1.34,26.16a38.2,38.2,0,0,0,2,14,25.84,25.84,0,0,0,2.78,9.92,24.67,24.67,0,0,0,4.29,9.92c0,.49-.09,1.08.13,1.47,8.93,15.52,21.34,27.27,38.35,33.24,33.9,11.91,67.71,8.41,101.38-1.52,2.27-.67,2.18-2.06,2.17-3.75q-.1-15.22-.17-30.44V137q0-5.5,0-11Z"/><path class="cls-2" d="M965.32,110.15a14.18,14.18,0,0,0,5.15-5.08h0a8.44,8.44,0,0,0,3.16-3.95h0a21.87,21.87,0,0,0,4.64-9h0a12.4,12.4,0,0,0,2.09-6.89h0c1.15-1.55.93-3.34.91-5.1h0c1.42-4,1-8.07.7-12.15.45-2.76-.47-5.35-1-8a13.55,13.55,0,0,0-1.76-6A19.92,19.92,0,0,0,975,45a16.59,16.59,0,0,0-5.93-7h0c-1.54-3.35-5.05-4.3-7.7-6.31h0c-3.53-3-7.79-4.42-12.08-5.66-22.48-6.53-45.12-3.77-67.76-1.05-1.67.2-2.37.93-2.31,2.54.06,1.83.1,3.66.15,5.48h0v6h0q0,3,0,6,0,4.5,0,9,0,6,0,12h0v9q0,4.5,0,9,0,3,0,6,0,5.5,0,11,0,2,0,4v4h0q0,3.5,0,7,0,2,0,4,0,3,0,6v17h0q0,6,0,12c-.17,11.66-.49,23.31.16,35h0a68.51,68.51,0,0,0,20.69.06h0c1.71-1.45.81-3.41.81-5.09.07-18.92.11-37.84,0-56.75,0-3.47.61-4.35,4.38-3.9,13.78,1.67,27.47,1.13,40.74-3.54a28.36,28.36,0,0,0,9-3.87A27.29,27.29,0,0,0,965.32,110.15Zm-9.41-55.66c-.31,2.6.23,4.82,2.55,6.21-.53,2-.56,3.9,1.51,5.13l0,0a9.55,9.55,0,0,0-.1,9.18l.38.21c-2.07,2.4-2.66,5-1.23,8a6.08,6.08,0,0,0-2.69,6.29c-3.73,2.29-5.76,6.31-8.89,9.21a1,1,0,0,0-.29,1.27c-2.84-.22-5.22.37-6.46,3a10.18,10.18,0,0,0-3.45.39c-11.55,3.17-23.22,2.65-34.91,1.1a7.34,7.34,0,0,0,.47-2.74c.14-19.53.17-39.05,0-58.58a5.48,5.48,0,0,0-.28-1.46c10.75-.27,21.5-.19,32.25-.15a5.63,5.63,0,0,1,.89-.48,18.16,18.16,0,0,0,11.66,4.58l.46-.07C948.94,50,952.2,52.44,955.91,54.49Z"/><path class="cls-2" d="M380.27,130c0-4-1.65-7.5-3.34-11a17.1,17.1,0,0,0-4.8-7c-1.39-3.77-4.68-5.79-7.57-8.16h0A58.47,58.47,0,0,0,344.25,92c-7.43-3.58-15.24-6.18-23-9-4.61-3-10.26-4.67-13.13-10-.37-4.07,0-7.93,3.07-11.06a27.41,27.41,0,0,1,11.06-4.16c13.74-1.68,26.81,1,39.46,6.08,2.76,1.12,4.05,1,4.61-2.28.7-4.24,1.93-8.39,2.92-12.57a41.89,41.89,0,0,0,2.93-11c3.31-8.88,3.31-8.9-5.19-11.75-1.55-.52-3.19-.79-4.79-1.18C356.81,22.83,351,22,345.31,21.55c-14.85-1.17-29.72-2-44.09,3.39a47.55,47.55,0,0,0-22.14,12,31.14,31.14,0,0,0-9.6,11.11,29,29,0,0,0-5.13,12c-2,6.3-2.82,12.66-1.18,19.18-.06,1.69-.23,3.4.92,4.86a20.52,20.52,0,0,0,4,10c2.37,5.49,6.52,9.47,11.08,13.11a41.86,41.86,0,0,0,11.1,7.57c4.2,3,9,4.84,13.82,6.54,8.28,3.81,17.31,5.85,25.14,10.69,3.75,3.13,6.6,6.73,6.2,12l-1.89,5.1c-5,5.63-11.7,6.7-18.59,6.88-15.91.42-30.91-3.51-45.57-10.32-2.72,11.73-5.34,23.2-8.05,34.66-.58,2.47.89,3.14,2.68,3.92a125.9,125.9,0,0,0,18.49,5.87c3.9,1,8.17.59,11.73,2.93h30c.54-1.63,1.92-.89,3-1,27.53-2.68,45.88-17.23,52.94-42,1.25-2.89,1.21-5.94,1.05-9C381.43,137.29,381.69,133.57,380.27,130Z"/><path class="cls-2" d="M256.17,72.48c0-3.55-1.32-4.1-4.35-4.07-10.82.13-21.65,0-32.47,0-8.39,0-8.39,0-7.94,8.54h0q0,6.5,0,13,0,3.5,0,7v21q0,5.5,0,11,0,4,0,8,0,5.5,0,11c-.16,14-.52,28,.19,42a4.39,4.39,0,0,0,1.83.54c2.3.44,4.67,0,7,0,11.61-.23,23.24.76,34.84-.5h0l.06,0h0c1.37-.75.81-2.06.81-3.12C256.12,148.76,256,110.62,256.17,72.48Z"/><path class="cls-2" d="M188,1.21,188.24,0h-52a1.59,1.59,0,0,0,.07.85h-.13l.11.29h-.37l.26-.29q0-.42.06-.85h-33l.16,13.08h0c0,5.3-.09,10.59,0,15.89,0,1.41-1,3.57,1.79,3.78l2,.21c2.44,1.47,5.28,1.49,7.94,2.18l6.06,2.64,4,2.06h0l5,3.12,5,4,3,3.06,4,4,3,4,2.91,4.24h0A7.28,7.28,0,0,0,150.21,66l4,10.05L155.37,81c-.61,6.49,4.18,3.31,6.89,3.85l16,0,9,0c1.66-.54.92-1.94.92-2.93Q188.1,41.54,188,1.21Z"/><path class="cls-2" d="M1450.22,24.22c-3.23-3.25-9.8-.59-14.87-1.12-3.85-.4-5.11.83-5.09,4.9.14,26.8-.1,53.6,0,80.4,0,5.26-.78,10.61.73,15.81h0l.27,1.8h0l.1,11,.11,1.05h0a27.77,27.77,0,0,0,.32,7.58,7.64,7.64,0,0,0,.36,1.5l.1,2.87.1,6.86-1,2-2.17-3.92c-1.35-4.34-3.94-8-6.07-12a86.39,86.39,0,0,0-9.84-17c-.17-2.46-1.84-4.14-3.17-6l-3-5a19.49,19.49,0,0,0-3.79-6,34.85,34.85,0,0,0-5-8,65.36,65.36,0,0,0-7-11h0l-4.32-7h0l-5-8-5.79-9a20.48,20.48,0,0,0-4.83-7c-.17-2.13-1.61-3.54-2.86-5.05h0L1362.89,45h0l-1.46-2.08h0l-2.2-2.94c-.53-2.81-2.46-4.81-4.07-7h0c-2.69-7.7-7.71-10.2-16.16-10.1-42.45.51-84.9.23-127.35.23-9.77,0-9.77,0-9.25,9.87h0q0,4,0,8c1.15,1.9,3,.93,4.5.94,13.31.09,26.62.23,39.93,0,4.44-.09,5.87,1,5.84,5.68-.25,45.59-.25,91.18-.26,136.77,0,1.88-.84,4,.81,5.68h0c5.3,1.95,10.81.18,16.16.9,4.85.65,6.05-1.24,6-6-.24-45.93-.17-91.87-.39-137.81,0-2.82.5-4.23,2.09-4.83,2.72-.06,5.45-.18,8.18-.32,13.3.15,26.61,0,39.91.05h0c.05,2,.16,4,.16,6q-.08,68.17-.17,136.35c0,1.33,0,2.66,0,4s.36,2.52,1.83,2.44c6.34-.35,12.77,1.28,19-.87q0-18.95,0-37.9V140q0-7,0-14h0q0-3,0-6h0v-4h0q0-2.51,0-5c-.07-12,.52-24-.91-36L1345,64h0l.12-4.9c.68-2-.74-4.31,1.08-6.08l.9,1h0a15.69,15.69,0,0,0,3,6h0a12.84,12.84,0,0,0,3.12,6,35.62,35.62,0,0,0,4.89,9h0a53.43,53.43,0,0,0,6.18,10.84,13,13,0,0,0,3,5h0a62.52,62.52,0,0,0,6.85,11.26,32.24,32.24,0,0,0,5,8,20.58,20.58,0,0,0,3.9,6.16h0a12.12,12.12,0,0,0,3.07,4.89h0a11.44,11.44,0,0,0,3,4.8,170.88,170.88,0,0,0,12,19.23,60.37,60.37,0,0,0,6.93,11.1h0q10,17.23,21.09,33.74c5.5,1.76,11.17.23,16.7.87,4.41.51,5.59-1,5.57-5.48-.23-48.94-.2-97.87-.32-146.81C1451.09,33.72,1453.21,27.24,1450.22,24.22Z"/><path class="cls-2" d="M1200.23,145a30.63,30.63,0,0,0-3.14-11,19.34,19.34,0,0,0-3.84-8,13,13,0,0,0-4.14-6,12.63,12.63,0,0,0-5.65-5.11h0c-1.83-2.45-5.29-2.48-7.18-4.85a31.54,31.54,0,0,0,8.91-4.25,17,17,0,0,0,6-4.09,27.33,27.33,0,0,0,9.21-10.39h0a9.56,9.56,0,0,0,2.83-5.28h0a20.06,20.06,0,0,0,3-10c1.53-3.26.86-6.69.78-10.08a25.55,25.55,0,0,0-1.89-12,19.16,19.16,0,0,0-3.85-9c-.89-3-3.06-5-5.31-6.91h0c-1.16-2.5-3.38-3.83-5.66-5.1h0c-4.44-4-9.92-6.11-15.55-7.5-22.57-5.58-45.23-3.4-67.88-.39-2.55.34-2.59,2.09-2.59,4q0,36,0,71.92,0,4,0,8v6q0,2.5,0,5h0q-.1,33.64-.18,67.27c0,1.43-.36,3.49,1.79,3.42,6.67-.23,13.42,1.29,20-.79h0q0-18,0-35.91h0q0-5.5,0-11,0-8.49,0-17v-6c.18-1.38,1-1.89,2.35-1.86,11,.26,22.14-1.14,32.84,2.75l7.59,5.21h0l6.23,9.18h0l4.09,11.86a26.23,26.23,0,0,0,2,8.9,194.77,194.77,0,0,0,8.34,31.74c.49,1.4,1.07,2.77,3,2.75,6.74-.05,13.47,0,20.67,0-4.9-11.61-7.06-23.23-10.24-34.55C1202.2,152.28,1201.77,148.5,1200.23,145Zm-18.37-87.46a40.45,40.45,0,0,1,2,13.06,4.4,4.4,0,0,0,1.38,3.54,1,1,0,0,0-.11.18q-.15.32.22.68h0c-2.48,2.52-3.83,5.4-2.91,9-2.54,1-3.85,2.75-3.66,5.47-4.07,1.82-7.8,4.08-10.39,7.92l-.37-.14c-13.56,3.36-27.37,1.89-41.08,2.23,1.45-3.25,1.09-6.54-.63-9.84h0a3.8,3.8,0,0,0,0-5.36l.09,0c1.63-3.05,2.08-6.06-.1-9l.1,0c1.64-3.07,2.08-6.09-.14-9l.23-.06a13.82,13.82,0,0,0-.12-12.51l-.07,0c2.17-2.93,1.75-5.94,0-9a2.4,2.4,0,0,0,.46-2.71c7.6-.56,15.14-1.86,22.82-1.56,4.43.17,8.72,1.86,13.21,1.1a5.4,5.4,0,0,1,.71-.4c3,2.71,6.23,4.73,10.44,4.7a1,1,0,0,0,.22.6c2.23,2.88,3.91,6.36,7.72,7.66h.05A3.81,3.81,0,0,0,1181.86,57.54Z"/><path class="cls-2" d="M874.2,28.27c.14-4.2-1.11-5.23-5.25-5.21-40.3.16-80.61.08-120.91.14-1.5,0-3.31-.91-4.55.82l-.09,14h0v9q0,3,0,6t0,6c-.23,3.55,2.51,1.9,3.83,1.92,11.15.14,22.31.3,33.45,0,4.29-.13,5.13,1.19,5.11,5.25q-.2,43.77-.14,87.54c0,1.27,0,2.54,0,3.81q0,9.31,0,18.62,0,2.47,0,4.93,0,1.71,0,3.43c0,1.76-.61,3.65.54,5.32h0c1.45,1.25,3.19.67,4.79.68,10.32.06,20.65.1,31,0,2.76,0,5.63.75,8.29-.66h0c1.12-1.49.55-3.22.55-4.82q0-1.06,0-2.11c0-1.74,0-3.49,0-5.23q0-8.77,0-17.53c0-1.53,0-3.05,0-4.58q0-44.94-.13-89.87c0-3.65.78-4.79,4.61-4.73,12.64.2,25.28-.05,37.92-.13h0c1.75-1,.82-2.7.83-4C874.15,47.25,873.88,37.75,874.2,28.27Z"/></g></g></svg>