<svg xmlns="http://www.w3.org/2000/svg" viewBox="0 0 1780.24 193" width="1780.24" height="193"><defs><style>.cls-1{fill:#004062;}.cls-2{fill:#007293;}.cls-3{fill:#017a9b;}.cls-4{fill:#007597;}.cls-5{fill:#edd3cc;}.cls-6{fill:#e5b8ab;}.cls-7{fill:#f1dbd5;}.cls-8{fill:#daa496;}.cls-9{fill:#deac9f;}.cls-10{fill:#d50028;}.cls-11{fill:#007294;}.cls-12{fill:#004163;}.cls-13{fill:#006d8f;}.cls-14{fill:#67a2be;}.cls-15{fill:#9c0000;}.cls-16{fill:#609ebb;}.cls-17{fill:#017b9c;}.cls-18{fill:#00698b;}.cls-19{fill:#006c8e;}.cls-20{fill:#005073;}.cls-21{fill:#00587b;}.cls-22{fill:#006587;}.cls-23{fill:#00678a;}.cls-24{fill:#005477;}.cls-25{fill:#004b6e;}.cls-26{fill:#006d90;}.cls-27{fill:#006487;}.cls-28{fill:#619ebb;}.cls-29{fill:#005376;}.cls-30{fill:#67a1bd;}.cls-31{fill:#027394;}.cls-32{fill:#006689;}.cls-33{fill:#004d6f;}.cls-34{fill:#017294;}.cls-35{fill:#006285;}.cls-36{fill:#016f91;}.cls-37{fill:#057;}.cls-38{fill:#005578;}.cls-39{fill:#004d70;}.cls-40{fill:#004c6e;}.cls-41{fill:#004b6d;}.cls-42{fill:#005d80;}.cls-43{fill:#c6684e;}.cls-44{fill:#619fbb;}.cls-45{fill:#006f91;}.cls-46{fill:#005e81;}.cls-47{fill:#00577a;}.cls-48{fill:#3288a8;}.cls-49{fill:#006386;}.cls-50{fill:#006082;}.cls-51{fill:#5c9cb8;}.cls-52{fill:#006385;}.cls-53{fill:#00597c;}.cls-54{fill:#2182a3;}.cls-55{fill:#00688b;}.cls-56{fill:#004366;}.cls-57{fill:#005b7e;}.cls-58{fill:#004769;}.cls-59{fill:#c36349;}.cls-60{fill:#004668;}.cls-61{fill:#2082a3;}.cls-62{fill:#005e80;}.cls-63{fill:#004f72;}.cls-64{fill:#025f81;}.cls-65{fill:#046;}.cls-66{fill:#147e9f;}.cls-67{fill:#004567;}.cls-68{fill:#00486a;}.cls-69{fill:#af3b21;}.cls-70{fill:#c4644a;}.cls-71{fill:#69a3be;}.cls-72{fill:#037092;}.cls-73{fill:#00799b;}.cls-74{fill:#004365;}.cls-75{fill:#9e0b00;}.cls-76{fill:#b34328;}.cls-77{fill:#b34228;}.cls-78{fill:#a92d13;}.cls-79{fill:#2282a3;}.cls-80{fill:#2d86a6;}.cls-81{fill:#b5462b;}.cls-82{fill:#ba5035;}.cls-83{fill:#ae381d;}.cls-84{fill:#5899b7;}.cls-85{fill:#1b80a1;}.cls-86{fill:#2b85a5;}.cls-87{fill:#2784a4;}.cls-88{fill:#b13f24;}.cls-89{fill:#bc543a;}.cls-90{fill:#b4462b;}.cls-91{fill:#2884a4;}.cls-92{fill:#007a9c;}.cls-93{fill:#ab3218;}.cls-94{fill:#005679;}.cls-95{fill:#004a6d;}.cls-96{fill:#ab3117;}.cls-97{fill:#017193;}.cls-98{fill:#9d0500;}.cls-99{fill:#2885a4;}.cls-100{fill:#a52409;}.cls-101{fill:#025779;}.cls-102{fill:#68a2be;}.cls-103{fill:#a82a0f;}.cls-104{fill:#007798;}.cls-105{fill:#017799;}.cls-106{fill:#b84d32;}.cls-107{fill:#007b9c;}.cls-108{fill:#a31f04;}.cls-109{fill:#5095b3;}.cls-110{fill:#3388a8;}.cls-111{fill:#5195b3;}.cls-112{fill:#3287a7;}.cls-113{fill:#017597;}.cls-114{fill:#b24025;}.cls-115{fill:#a6270c;}.cls-116{fill:#007596;}.cls-117{fill:#00789a;}.cls-118{fill:#ad351b;}.cls-119{fill:#5d9cb8;}.cls-120{fill:#007697;}.cls-121{fill:#007698;}.cls-122{fill:#3488a8;}.cls-123{fill:#418ead;}.cls-124{fill:#b6482e;}.cls-125{fill:#5e9db9;}.cls-126{fill:#4891b0;}.cls-127{fill:#5899b6;}.cls-128{fill:#5d9cb9;}.cls-129{fill:#2a85a5;}.cls-130{fill:#5296b3;}.cls-131{fill:#4791af;}.cls-132{fill:#2c85a6;}.cls-133{fill:#408ead;}.cls-134{fill:#027c9d;}.cls-135{fill:#4991b0;}.cls-136{fill:#599ab7;}.cls-137{fill:#408dac;}.cls-138{fill:#3b8bab;}.cls-139{fill:#3589a9;}.cls-140{fill:#4891af;}.cls-141{fill:#428fad;}.cls-142{fill:#be583e;}.cls-143{fill:#137e9f;}.cls-144{fill:#077496;}.cls-145{fill:#127e9f;}.cls-146{fill:#c26147;}.cls-147{fill:#4f94b2;}.cls-148{fill:#3b8baa;}.cls-149{fill:#5296b4;}.cls-150{fill:#a01101;}.cls-151{fill:#1c81a1;}.cls-152{fill:#3a8aaa;}.cls-153{fill:#c05c41;}.cls-154{fill:#5397b4;}.cls-155{fill:#c05d42;}.cls-156{fill:#a01001;}.cls-157{fill:#6ea6c0;}.cls-158{fill:#0a7596;}.cls-159{fill:#1c81a2;}.cls-160{fill:#3689a9;}.cls-161{fill:#5196b3;}.cls-162{fill:#a11702;}.cls-163{fill:#1a80a1;}.cls-164{fill:#c15e43;}.cls-165{fill:#a11803;}.cls-166{fill:#a31d06;}.cls-167{fill:#c4dae5;}.cls-168{fill:#9ec9d6;}.cls-169{fill:#a31e04;}.cls-170{fill:#a11700;}.cls-171{fill:#cc745a;}.cls-172{fill:#ca6f55;}.cls-173{fill:#c86b50;}.cls-174{fill:#004467;}.cls-175{fill:#980000;}.cls-176{fill:#5799b6;}.cls-177{fill:#4e94b2;}.cls-178{fill:#00496b;}.cls-179{fill:#005375;}.cls-180{fill:#004e71;}.cls-181{fill:#006b8d;}.cls-182{fill:#006184;}.cls-183{fill:#005f81;}.cls-184{fill:#037395;}.cls-185{fill:#007496;}.cls-186{fill:#2984a5;}.cls-187{fill:#3489a8;}</style></defs><title>Asset 1</title><g id="Layer_2" data-name="Layer 2"><g id="Layer_1-2" data-name="Layer 1"><g id="tLh0uj.tif"><path class="cls-1" d="M380.14,150c-7.06,24.78-25.41,39.33-52.94,42-1,.1-2.41-.64-3,1h-30c-3.56-2.34-7.83-1.91-11.73-2.93A125.9,125.9,0,0,1,264,184.21c-1.79-.78-3.27-1.45-2.68-3.92,2.71-11.46,5.34-22.93,8.05-34.66,14.66,6.82,29.66,10.75,45.57,10.32,6.89-.18,13.63-1.26,18.59-6.88,2.88-1.12,5.88-.61,8.83-.63q15.35-.08,30.71,0C375.52,148.47,378.12,148,380.14,150Z"/><path class="cls-2" d="M1680.17,179.81l4.28-15.86c8.31,4.41,16.62,7.93,25.61,9.55,7.59,1.37,15.17,1.89,22.81.48,11.42-2.11,19.89-8,24.31-19,6.44-2.84,13.08-1.53,19.67-.89a2.71,2.71,0,0,1,2.23,2.33c-.25,11.34-7,19-15.13,25.54-8.31,6.73-18.15,9.93-28.71,11h-27c-2.79-2.41-6.47-1.87-9.69-2.85-6.34-1.93-12.73-3.66-18.31-7.42A2.48,2.48,0,0,1,1680.17,179.81Z"/><path class="cls-3" d="M1758.27,143a32,32,0,0,0-8.41-16.9,4.06,4.06,0,0,1,3-1.49,172.16,172.16,0,0,1,20.38,0,6.89,6.89,0,0,1,3.19,1.31c2.33,3,1.82,7,3.77,10.1v7A32.77,32.77,0,0,1,1758.27,143Z"/><path class="cls-4" d="M1758.27,143h22v11c-1.71.82-.6,3-2,4,.23-2.9-1.61-3.06-3.81-3-5.75.06-11.51,0-17.26,0Z"/><path class="cls-5" d="M85,155.13c1.74.61,1.31,2.13,1.31,3.37,0,8.48-.09,17,.09,25.45.07,3.32-1.18,4.27-4.37,4.25C54.8,188.06,27.52,188,.24,188V103l1.05,0c2.68,4.36,1,9.16,1.41,13.75.21,3.06,0,6.13,0,9.19.11,3.65,0,7.3,0,10.95.21,3.62,0,7.24,0,10.86.17,2.68-.11,5.36,0,8,.17,2.07-.16,4.13,0,6.2.06,2.63,0,5.26,0,7.9.13,3.09,0,6.18,0,9.27.34,2.06-.85,4.41,1.13,6.17,2.26.49,4.53.16,6.79.26,2.23-.06,4.45-.09,6.68-.06,2,.1,4-.12,6.07,0,2.35,0,4.7-.13,7.06-.05,3.85.08,7.71-.17,11.56,0,1.77,0,3.53-.12,5.3,0,2.34.09,4.69-.09,7,0,2.07.16,4.14-.15,6.21,0,3.85,0,7.7-.12,11.54-.06,13.8,0,11.54,1.32,11.76-11.54,0-3.78,0-7.55.08-11.32a25.66,25.66,0,0,1,.36-6A4.79,4.79,0,0,1,85,155.13Z"/><path class="cls-6" d="M86.24,0c0,9.44.06,18.87,0,28.31,0,1.52.79,3.39-1.2,4.43-2.47-4.33-.94-9.06-1.31-13.6a71.09,71.09,0,0,1,.08-7.43,44.81,44.81,0,0,1,0-5c.41-3.24-.94-4.77-4.28-4.35-1.94,0-3.86.12-5.79,0q-6,.24-11.91,0c-18.42.33-36.83.1-55.25.12a9.65,9.65,0,0,1-4.84-.91A1.2,1.2,0,0,1,1.24,0Z"/><path class="cls-7" d="M1.24,0l.11,1.13C2.73,2.59,2.8,4.44,2.8,6.27c0,18.41.25,36.81-.11,55.22q.21,6,0,12.06c.13,2.09-.05,4.19,0,6.29,0,1.81,0,3.61-1.31,5.09L.24,85Q.24,44.49.3,4C.31,2.68-.82.89,1.24,0Z"/><path class="cls-8" d="M188.24,0,188,1.21a4.85,4.85,0,0,1-3.15,1.1c-2.26.08-4.53.15-6.79.09q-3.89.11-7.78.07c-2.63-.13-5.26.1-7.89,0-2.05-.19-4.11.11-6.16,0-2.94-.13-5.88.16-8.81,0-3.51-.18-7.11.67-10.51-.88A1.48,1.48,0,0,1,136.24,0Z"/><path class="cls-9" d="M136.24,0q0,.43-.06.85l-.58.67c-3.07,1.46-6.35.76-9.55.91-2.89,0-5.79.15-8.68,0-1.16,0-2.32,0-3.48,0-7.22,0-7.2,0-8.34,7.17-.23,1.41-.15,3.1-2.15,3.45L103.24,0Z"/><path class="cls-1" d="M504.28,149c10.81,5.94,22.34,7.9,34.58,6.76,4.45-.42,7.16-1.75,6.43-6.74,1.58-1.49,3.58-1.56,5.57-1.58q15.83-.1,31.66,0c2,0,4,0,5.55,1.57q.08,15.22.17,30.44c0,1.69.1,3.08-2.17,3.75-33.67,9.93-67.48,13.43-101.38,1.52-17-6-29.41-17.73-38.35-33.24-.22-.39-.1-1-.13-1.47,1.24-1.36,2.92-1.52,4.57-1.53,17-.09,34.08-.19,51.11,0A4.06,4.06,0,0,1,504.28,149Z"/><path class="cls-10" d="M94.4,56.83A37.16,37.16,0,1,1,57.25,94,37.1,37.1,0,0,1,94.4,56.83Z"/><path class="cls-11" d="M1492.25,172c22.49,0,45,.07,67.45-.08,3.44,0,4.85.81,4.42,4.38-.55,4.56,2,10.46-1,13.4-2.78,2.71-8.58.79-13,.8q-37.22.11-74.45,0c-1.79,0-3.66.47-5.38-.48-.84-12.35-.53-24.7-.16-37.06,7-2.71,14-2,21-.42,1.47,4.31.29,8.77.69,13.14C1491.93,167.8,1491.2,170,1492.25,172Z"/><path class="cls-12" d="M741.07,147q.08,20.13.17,40.26c0,1.69.22,3.34-2.38,3.27-13.88-.36-27.77.64-41.63-.54-1-7.24-.39-14.52-.42-21.78s-.48-14.23.28-21.34c1.61-1.49,3.65-1.45,5.63-1.46q16.39-.11,32.79,0C737.48,145.44,739.52,145.42,741.07,147Z"/><path class="cls-1" d="M830.27,189.77c-2.66,1.41-5.53.63-8.29.66-10.32.11-20.65.07-31,0-1.6,0-3.35.57-4.8-.68-1.05-8.54-.31-17.11-.4-25.66-.06-5.42-.52-10.87.32-16.28,1.48-1.34,3.33-1.39,5.15-1.41q16.88-.14,33.77,0c1.82,0,3.66.06,5.19,1.3,1.07,7.23.42,14.51.43,21.76C830.68,176.25,831.27,183,830.27,189.77Z"/><path class="cls-1" d="M211.59,190c-.7-14-.34-28-.19-42,1.4-1.45,3.24-1.54,5.06-1.56q17.09-.14,34.17,0a6.73,6.73,0,0,1,4.66,1.34q1.06,21.11,0,42.23l-.06,0c-12.91,1-25.85.18-38.77.41C214.85,190.49,213.15,190.89,211.59,190Z"/><path class="cls-1" d="M431.31,189.76c-2.11,1.44-4.49.65-6.72.67-10.89.1-21.78.07-32.67,0-1.59,0-3.32.57-4.74-.69-.72-14-.64-28,0-41.93,1.48-1.33,3.33-1.39,5.15-1.4q16.88-.14,33.76,0c1.82,0,3.66.05,5.19,1.3,1.12,6.9.42,13.84.43,20.76C431.68,175.57,432.27,182.69,431.31,189.76Z"/><path class="cls-13" d="M743.41,38l.09-14c1.38-.87,2.92-.48,4.38-.48,40.24,0,80.49,0,120.73-.11,4.18,0,5.67,1.14,5.16,5.26-.39,3.12.33,6.31-.37,9.43-1.93,1.73-4.34,1.5-6.64,1.5q-58.38.06-116.76,0C747.7,39.6,745.29,39.84,743.41,38Z"/><path class="cls-1" d="M642.19,150q.11,18.68.24,37.36c0,1.84-.1,3.24-2.56,3.17-13.91-.36-27.85.62-41.75-.53q-.87-20.08,0-40.15c1.47-1.35,3.33-1.41,5.15-1.43q16.91-.13,33.83,0C638.92,148.45,640.75,148.63,642.19,150Z"/><path class="cls-10" d="M233.93,13.83c13.57.08,22.51,8.52,22.48,21.24S247,56.21,233.16,56.17c-13.4,0-22.44-8.63-22.45-21.35S219.93,13.75,233.93,13.83Z"/><path class="cls-14" d="M1202.4,33c-.52-9.87-.52-9.87,9.25-9.87,42.45,0,84.91.27,127.35-.23,8.45-.1,13.47,2.4,16.16,10.1-1.87,1.87-4.29,1.6-6.58,1.6q-69.8.07-139.6,0C1206.7,34.6,1204.28,34.84,1202.4,33Z"/><path class="cls-15" d="M181.24,103.06c6.84-.48,6.84-.48,6.84,6.05,0,24.27,0,48.53-.05,72.8,0,1.67,1,3.63-.79,5.08a6.48,6.48,0,0,1-1.36-4.68c0-22.12-.1-44.25,0-67.25-23.86,23.38-46.95,46.79-70.79,70.56,22.25,0,43.58,0,64.92,0,2.46,0,5-.45,7.18,1.37a16.25,16.25,0,0,1-2.85.51q-38.62,0-77.24,0c-1.1,0-2.35.42-3.26-.67a53,53,0,0,1-.06-6.51c.61-2,2.21-3.28,3.61-4.68q34.17-34.18,68.33-68.36A19.94,19.94,0,0,1,181.24,103.06Z"/><path class="cls-16" d="M1202.4,33h152.76c1.6,2.19,3.54,4.18,4.07,7-1.6,3-4.47,2.4-7.06,2.48-18.94.55-37.84-1.71-56.79-1-8.28.3-16.66,1-24.81.8-22.43-.66-44.85-.6-67.27-.86-.3,0-.6-.27-.9-.41Q1202.4,37,1202.4,33Z"/><path class="cls-17" d="M1076.48,125.9a41.75,41.75,0,0,1,3.68,11.1c-7.24,4-14.72,3.26-22.27,1.12l-56.59-.11c-1.14,0-2.36-.17-3.14,1a32.46,32.46,0,0,1-21.7,0l4.61-13.07c2.13-1.67,4.66-1.55,7.14-1.55q40.55,0,81.11,0C1071.81,124.38,1074.33,124.28,1076.48,125.9Z"/><path class="cls-11" d="M1429.18,155l2.17,3.92c2.5.42,1.13-1.14,1-2l-.1-6.86a23.7,23.7,0,0,1,18.14-.06c.66,12.64.11,25.29.3,37.93,0,1.92-.77,2.7-2.66,2.62-6.3-.26-12.63.49-18.92-.39q-11.11-16.51-21.09-33.74c-.31-2.23,1.47-2.46,2.85-2.6,5.3-.54,10.63-.27,15.95-.43A2.7,2.7,0,0,1,1429.18,155Z"/><path class="cls-18" d="M743.41,38H873.13a14.85,14.85,0,0,1-.08,9.4c-2.07,1.43-4.46,1.2-6.76,1.2q-57.89,0-115.79,0c-2.45,0-5.05.34-7.09-1.61Q743.41,42.5,743.41,38Z"/><path class="cls-19" d="M469,40.9a59.15,59.15,0,0,1,20.12-11c28.59-1.24,57.2-.26,85.8-.54,2.49,0,5,.14,7.18,1.59a45.53,45.53,0,0,1-2.85,11c-1.93,1.69-4.3,1.6-6.62,1.6q-48.07,0-96.14,0C473.78,43.58,470.72,44,469,40.9Z"/><path class="cls-20" d="M741.07,106q0,4,0,8c-1.88,1.84-4.3,1.6-6.6,1.6q-64.9.06-129.79,0c-2.15,0-4.36.13-6.26-1.21a13.86,13.86,0,0,1-.13-8.7c2-1.54,4.42-1.31,6.73-1.31q64.48,0,129,0C736.43,104.39,739,104,741.07,106Z"/><path class="cls-21" d="M642.19,81c-.25,3.1,1,4.12,4.25,4.08,16.58-.19,33.17-.12,49.76-.13a4.56,4.56,0,0,1,1.76-.71c12,.4,24.06.09,36.08.22,2.43,0,5-.37,7,1.54q0,3,0,6c-1.88,1.84-4.3,1.6-6.6,1.6q-64.9.06-129.8,0c-2.15,0-4.36.14-6.26-1.21-1.16-3.86-.85-7.74-.21-11.64,1.66-1.39,3.69-1.34,5.66-1.35q16.12-.09,32.24,0C638.25,79.42,640.45,79.38,642.19,81Z"/><path class="cls-22" d="M264.34,60a29,29,0,0,1,5.13-12,14.61,14.61,0,0,1,5.41-.68c28.94,0,57.87,0,86.81,0,2.6,0,5.38-.48,7.58,1.6-1,4.19-2.22,8.34-2.92,12.57-.55,3.32-1.84,3.4-4.61,2.28-12.65-5.12-25.72-7.76-39.46-6.08a27.41,27.41,0,0,0-11.06,4.16c-13.25-.74-26.52-.21-39.78-.4C269,61.51,266.41,61.88,264.34,60Z"/><path class="cls-18" d="M369.27,49q-46.74,0-93.49,0c-2.14,0-4.36.39-6.31-.94a31.14,31.14,0,0,1,9.6-11.11,9,9,0,0,1,4.37-.72c26.9.38,53.8,0,80.69.2,2.75,0,5.71-.6,8.07,1.59A41.88,41.88,0,0,1,369.27,49Z"/><path class="cls-14" d="M1470.46,153q-.13,18.51-.26,37c-1.55-1.32-.84-3.11-.84-4.68q0-77.43.18-154.86c0-7.36,0-7.36,7.35-7.36q38.22,0,76.43,0c7.77,0,6.81-1.17,6.91,6.86,0,1-.1,2-.16,3-2.39,2.12-5.34,1.54-8.1,1.55-24.42.05-48.85,0-73.27,0-6.14,0-6.2.13-7,5.75,0,1.52.12,3,0,4.56.06,3,.09,5.93,0,8.89,0,2,.09,4.1,0,6.15.08,2.05.06,4.1,0,6.15.1,3,.09,5.9,0,8.85.08,3,.1,5.92,0,8.88.07,2.06.09,4.13,0,6.19.08,3.5.1,7,0,10.51,0,1.43.1,2.86,0,4.29s0,2.82,0,4.24c.06,2,0,3.95,0,5.92.08,1.72,0,3.44,0,5.16.14,2.07,0,4.13,0,6.2.17,4.89.14,9.78,0,14.67C1471.51,145,1472.71,149.21,1470.46,153Z"/><path class="cls-23" d="M469,40.9c2.11,1.31,4.47,1.1,6.79,1.1H579.27a49.32,49.32,0,0,1-3,12.05C573,52.67,569.48,52.6,566,52.6c-33.17,0-66.33.07-99.5-.07-2.6,0-6.22,1.4-7.38-2.85A35.4,35.4,0,0,1,469,40.9Z"/><path class="cls-24" d="M279.18,107.16c-4.56-3.64-8.71-7.62-11.08-13.11,1.4-2.78,4.08-2.62,6.51-2.59,23.21.21,46.43-.76,69.63.53a58.47,58.47,0,0,1,20.3,11.86c-2,3.47-5.47,2.69-8.5,2.7-22.14.09-44.28,0-66.42,0A72.45,72.45,0,0,0,279.18,107.16Z"/><path class="cls-25" d="M697.35,147q-.06,21.49-.12,43c-1.68-1.27-.79-3.08-.8-4.6-.07-19-.12-37.93,0-56.89,0-3.47-.91-4.47-4.42-4.44-16.46.18-32.93.07-49.4.06a9.51,9.51,0,0,1-5.19,1.44q-17.15.11-34.31,0a7.77,7.77,0,0,1-4.75-1.17,6.1,6.1,0,0,1-.09-5.72c2-1.51,4.43-1.29,6.74-1.29q64.46,0,128.91,0c2.46,0,5.06-.34,7.1,1.61q0,5,0,10c-1.9,1.8-4.32,1.5-6.61,1.52-9,.06-17.94,0-26.91,0-8.54,0-8.54,0-8.86,8.3C698.67,141.64,699.25,144.53,697.35,147Z"/><path class="cls-26" d="M372.21,38q-42.4,0-84.8,0a27.2,27.2,0,0,1-8.33-1.1,47.55,47.55,0,0,1,22.14-12c9.24,1,18.51.45,27.77.47,11.08,0,22.17.39,33.24-.34,1.6.39,3.23.66,4.79,1.18C375.52,29.1,375.51,29.12,372.21,38Z"/><path class="cls-11" d="M1085.11,151c4.24,12.19,8.45,24.38,12.74,36.55.76,2.16.35,3.06-2,3-6-.07-11.95-.08-17.92,0a3,3,0,0,1-3.23-2.36q-6.26-19.09-12.56-38.16C1067.64,147.25,1081.45,147.82,1085.11,151Z"/><path class="cls-27" d="M459.09,49.67c1.61,2.2,4,1.28,6,1.29,35.27.06,70.54,0,105.81.08,2.19,0,5.44-1.27,5.35,3-1.48,11.38-1.47,11.34-12.16,8.28-11.42-3.27-23.14-3.7-34.91-3.55-3.77-1-7.58-.31-11.38-.28-19.11.15-38.22.06-57.33,0-2.55,0-5.46.5-7-2.49A19.26,19.26,0,0,1,459.09,49.67Z"/><path class="cls-28" d="M1470.38,41a22.29,22.29,0,0,0-.13-2.49c-.69-4.3.89-5.68,5.41-5.65,28.14.22,56.28.11,84.41.12.45,8.87.45,8.87-8.24,8.87-18.33,0-36.66.11-55-.09-4,0-5.06,1.14-5,5.05q.37,21.24.08,42.49c0,3.69.9,4.83,4.71,4.79,18.33-.2,36.66-.11,55,0,1.51,0,3.36-.89,4.54,1-1.6,1.51-3.63,1.56-5.62,1.56q-27,.08-53.92,0c-4,0-7-1.06-6.81-5.86a55.68,55.68,0,0,1,0-6.59c-.07-3-.1-6,0-9-.07-3-.1-5.93,0-8.89,0-2.05-.09-4.11,0-6.16-.08-2-.07-4.09,0-6.13-.1-2.87-.06-5.74-.06-8.6,0-2.64-2.07-2.66-3.85-2.78-3.3-.22-6.61,0-9.91-.11C1474,42.39,1472,42.54,1470.38,41Z"/><path class="cls-11" d="M993.36,153.23c-3.73,11.68-7.49,23.35-11.18,35a3,3,0,0,1-3.31,2.29q-8.48-.08-17,0c-2.13,0-3.09-.4-2.21-2.87,4.32-12.2,8.5-24.45,12.73-36.69,6.17-1.37,12.36-.43,18.54-.17C992.15,150.89,993.69,151.31,993.36,153.23Z"/><path class="cls-29" d="M741.07,106H598.35a7,7,0,0,1,.16-6.48c1.77-1.24,3.81-1,5.79-1q65.34,0,130.67,0c2.14,0,4.38-.28,6.1,1.48Q741.07,103,741.07,106Z"/><path class="cls-30" d="M1104.41,101q0-36,0-71.92c0-1.93,0-3.68,2.59-4,22.65-3,45.31-5.18,67.88.39,5.63,1.39,11.1,3.47,15.55,7.5-2.35,2.21-5.31,1.59-8.05,1.6-22.91.06-45.82,0-68.72,0-3.48,0-6.89,0-6.87,4.88,0,1.84.11,3.68,0,5.51.1,3,.09,6.06,0,9.08.11,3.93.12,7.86,0,11.8.08,3,.11,6,0,9,.06,2.95.11,5.9,0,8.85,0,2,.09,4,0,6-.11,3.36.31,6.74-.43,10.07a3.06,3.06,0,0,1-1,1.37Z"/><path class="cls-11" d="M1680.17,179.81l.07,2.92a1.49,1.49,0,0,0-.69,1.69c1.23,6.12,1.23,6.12-5.24,6.12h-4c-11.72,0-11.86,0-14.92-11.1-2-7.32-4.39-14.58-5.27-22.18-.77-2-.56-4,1.73-4.22,6.42-.67,12.95-2,19.21,1,2.25,8.42,4.53,16.82,6.73,25.25C1678.32,181.16,1678.82,182,1680.17,179.81Z"/><path class="cls-11" d="M1203,156c3.19,11.32,5.34,22.94,10.24,34.55-7.19,0-13.93,0-20.67,0-2,0-2.55-1.35-3-2.75a194.77,194.77,0,0,1-8.34-31.74c-.16-1.57,1-2,2.13-2.16a67.87,67.87,0,0,1,17.09,0A3.32,3.32,0,0,1,1203,156Z"/><path class="cls-31" d="M1573.5,190c-.83-12.65-.43-25.31-.2-38,7-2.6,14-2.38,21.06-.16.49,12.69.83,25.37-.18,38.05l0,0A81.47,81.47,0,0,1,1573.5,190Z"/><path class="cls-32" d="M743.41,47H873.13a6.92,6.92,0,0,1-.16,6.47c-2.1,1.35-4.47,1.13-6.78,1.13q-57.84,0-115.69,0c-2.45,0-5,.34-7.09-1.6Z"/><path class="cls-27" d="M743.41,53H873.13a6.81,6.81,0,0,1-.17,6.45A7.9,7.9,0,0,1,869,60c-26-.39-52,1.4-77.92.52-14.49-.49-29-.29-43.44-.52-1.49,0-3,.15-4.27-1Q743.41,56,743.41,53Z"/><path class="cls-33" d="M545,126.09l-21.73-.45c-.67-4-1.1-8.09.22-12.1,1.92-1.29,4.12-1.14,6.26-1.14q25.88-.05,51.76,0c2.29,0,4.7-.23,6.58,1.6q0,6,0,12c-1.56,1.59-3.6,1.56-5.58,1.58-10.61.08-21.23.06-31.84,0A9.08,9.08,0,0,1,545,126.09Z"/><path class="cls-30" d="M1573.29,33c-.42-7.33-.46-7.74,6.29-8.51C1601.44,22,1623.33,19.81,1645,26c5.12,1.45,10.11,3.32,14.13,7.07-1.89,1.81-4.3,1.56-6.59,1.57q-36.32.07-72.64,0C1577.58,34.6,1575.19,34.75,1573.29,33Z"/><path class="cls-34" d="M1346.08,152q0,18.95,0,37.9c-6,1.3-12.16.3-18.24.54-2.24.09-2.07-1.66-2-3.15.14-11.75-.33-23.51.24-35.27A27.59,27.59,0,0,1,1346.08,152Z"/><path class="cls-34" d="M1126.07,154q0,18,0,35.91c-6.38,1.24-12.82.3-19.23.54-1.84.07-2.06-1.23-2-2.67.15-11.25-.33-22.51.26-33.76A29.91,29.91,0,0,1,1126.07,154Z"/><path class="cls-14" d="M879.4,33c0-1.83-.09-3.66-.15-5.48-.05-1.61.64-2.34,2.31-2.54,22.64-2.72,45.28-5.48,67.76,1.05,4.29,1.25,8.56,2.71,12.08,5.66-.75,3.47-3.67,2.8-5.93,2.85-8.66.2-17.32.08-26,.08-14.16,0-28.32,0-42.48,0C884.39,34.6,881.62,35.06,879.4,33Z"/><path class="cls-35" d="M743.41,59H873.13c.72.55.67,1.14.1,1.76-12.64.08-25.29.33-37.92.13-3.84-.06-4.63,1.07-4.61,4.73q.24,59.67.12,119.34c0,1.6.58,3.32-.55,4.82q-.15-20.88-.3-41.76c-2.15-3.8-1-7.93-1.19-11.92s-.13-8,0-12c-.09-3.64-.13-7.28,0-10.92-.07-2.41-.1-4.82,0-7.22-.11-3-.09-6,0-9q-.18-5.46,0-10.92c-.11-3.32-.12-6.63,0-9.94-.23-8.57-.23-8.58-9-8.58H796.32c-8.39,0-8.39,0-8.63,8.47.12,3.32.12,6.63,0,9.94.1,3.64.12,7.28,0,10.92.08,3,.11,6,0,9,.09,2.41.09,4.82,0,7.23.13,3.64.11,7.29,0,10.93.13,4,.12,8,0,12s1,8.17-1.19,12q-.15,20.88-.3,41.76c-1.16-1.67-.54-3.55-.54-5.32,0-39.44-.05-78.88.13-118.32,0-4.05-.82-5.38-5.11-5.25-11.14.34-22.3.17-33.45,0C745.92,60.9,743.18,62.55,743.41,59Z"/><path class="cls-34" d="M879.57,190c-.66-11.65-.33-23.31-.16-35a31.13,31.13,0,0,1,21-.13,311.63,311.63,0,0,1-.12,35.16h0A89.22,89.22,0,0,1,879.57,190Z"/><path class="cls-36" d="M387.51,148q-.16,20.88-.33,41.75c-1.11-1.5-.54-3.22-.54-4.82,0-52.1.08-104.2,0-156.31,0-4.23.79-5.74,5.42-5.6,12,.38,24,.19,36,.08,2.66,0,3.87.53,3.87,3.53q-.07,80.9,0,161.8a4,4,0,0,1-.53,1.32q-.16-20.88-.33-41.75c-2.27-4.14-.94-8.62-1.19-12.94s-.14-8.7,0-13c-.13-5-.15-9.93,0-14.89-.11-4-.14-8,0-12-.1-3.66-.13-7.33,0-11-.09-3.33-.12-6.66,0-10-.09-2.72-.1-5.43,0-8.15-.12-3-.1-6.07,0-9.1q-.21-6.39,0-12.77c-.43-10.85,2-10.65-11-10.61-7.66,0-15.33,0-23,0-6.83,0-7,.19-7,7,0,1.17,0,2.33-.07,3.5.12,4.26.14,8.51,0,12.77.08,3,.12,6.07,0,9.1.09,2.72.1,5.43,0,8.15.11,3.33.1,6.66,0,10,.12,3.66.12,7.33,0,11q.2,6,0,12,.21,7.45,0,14.9.2,6.54,0,13.08C388.46,139.35,389.79,143.85,387.51,148Z"/><path class="cls-37" d="M437.16,116.17c-1.37-8.81-.28-17.5,1.34-26.16,1.26-1.33,2.94-1.52,4.61-1.53,12.15-.1,24.3-.21,36.45.07,2.42.06,5.13.19,5.71,3.5-1.4,6.91-1.16,13.91-1.26,20.9-.73,0-1.42-.4-1.48-1.07-.51-5.21-4-5.52-8.17-5.43-8.8.18-17.61.05-26.41.06-8.41,0-8.41,0-9.71,8.28A3.1,3.1,0,0,1,437.16,116.17Z"/><path class="cls-38" d="M598.35,92H741.07q0,2.5,0,5c-1.73,1.75-4,1.48-6.1,1.48q-65.31,0-130.63,0c-2,0-4,.21-5.8-1A5.21,5.21,0,0,1,598.35,92Z"/><path class="cls-20" d="M279.18,107.16c.68-3.33,3.37-2.11,5.26-2.11q36.67-.11,73.34,0c2.33,0,4.67.15,6.77-1.15,2.9,2.38,6.18,4.39,7.57,8.16-1.88,3.34-5.19,2.5-8,2.52-24.6.17-49.21-.12-73.81.2A41.86,41.86,0,0,1,279.18,107.16Z"/><path class="cls-29" d="M588.08,95q0,5.5,0,11c-1.4,1.45-3.26,1.55-5.08,1.56q-27.33.15-54.66,0c-1.82,0-3.67-.07-5.16-1.38a3.44,3.44,0,0,1-.35-.92c-.86-11.9-.86-11.9,11-11.9,15.57,0,31.13,0,46.7,0C583.12,93.41,585.88,93,588.08,95Z"/><path class="cls-39" d="M741.07,119H598.35a4.86,4.86,0,0,1,0-5H741.07Q741.07,116.5,741.07,119Z"/><path class="cls-40" d="M437.16,116.17l.3-1.14c1.7-1.76,3.95-1.59,6.08-1.6q17.23-.1,34.46,0c2.16,0,4.37-.05,6.12,1.59l4,15c-1.54.84-3.22.59-4.86.59q-19.6,0-39.2,0a19,19,0,0,1-4.92-.42A38.2,38.2,0,0,1,437.16,116.17Z"/><path class="cls-41" d="M329.25,132c-7.84-4.85-16.86-6.89-25.14-10.69.91-3.69,4-2.77,6.39-2.8,12.75-.16,25.5-.05,38.25-.08,7.95,0,15.9.12,23.84-.1,1.49,0,3-.15,4.33.72,1.69,3.49,3.37,7,3.34,11-2,2-4.65,1.51-7.1,1.55C358.54,131.75,343.89,131.21,329.25,132Z"/><path class="cls-42" d="M642.19,81H598.35a44,44,0,0,1-.11-15.29c1.68-1.36,3.7-1.3,5.67-1.31q16.1-.09,32.2,0c2.14,0,4.33,0,6.07,1.59Q642.18,73.5,642.19,81Z"/><path class="cls-13" d="M741,24l.08,15c-1.4,1.45-3.25,1.54-5.06,1.56q-17.09.14-34.18,0a6.69,6.69,0,0,1-4.65-1.35c-.9-4.27-.19-8.6-.42-12.89-.09-1.77.42-2.85,2.47-2.8C713.14,23.83,727.08,22.88,741,24Z"/><path class="cls-43" d="M1.36,84.92l0-5c.86-2.25,2.55-3.85,4.2-5.5Q40.17,39.91,74.72,5.34a17.44,17.44,0,0,1,5.49-4.22C84.36.23,86,1.81,85.12,6,78.17,13.61,70.69,20.67,63.43,28Q36.73,54.78,9.93,81.5a36.39,36.39,0,0,1-3.69,3.33Z"/><path class="cls-44" d="M1573.29,33l85.82,0a14.63,14.63,0,0,1,5.28,4.68c-.47,3.52-3.4,2.66-5.41,2.72-7.48.24-15,.14-22.47.07-2,0-4-.18-5.78,1-6.48.39-12.82-1.55-19.35-1.06-3.48.26-6.94.59-10.4,1.08-2.77.39-4.12,1.87-4.15,4.64-.14,16.45-.08,32.91,0,49.36,0,3.15,1.89,3.88,4.55,3.89,5.15,0,10.31-.05,15.46,0,2.28,0,4.71-.31,6.57,1.59-.62,2.36-2.64,2.31-4.4,2.34q-10.45.2-20.9,0c-2.06,0-4-.52-4.84-2.77-.85-3.41-.51-6.87-.45-10.32,0-2.12-.11-4.24,0-6.36-.1-3-.09-6,0-9-.11-3-.1-6,0-9-.12-3.94-.12-7.88,0-11.82-.09-3-.12-5.94,0-8.91.2-3.65-1.78-4.64-5.14-4.81-4.79-.25-9.81,1.34-14.36-1.41Z"/><path class="cls-45" d="M582.12,31h-86.2c-2.31,0-4.67.28-6.78-1.05,9.21-4.5,19.12-6.44,29.18-7.35,20.11-1.81,40.1-1.32,59.47,5.34C579.39,28.49,582,28.08,582.12,31Z"/><path class="cls-46" d="M441.42,79a47.72,47.72,0,0,1,6.05-13.93,11.17,11.17,0,0,1,3.9-.66c14.76.06,29.52-.11,44.28.14,2.12,0,5.81-1.26,5.58,3.3a61.3,61.3,0,0,0-11,12c-14.46-.7-28.93-.18-43.39-.33C445,79.53,443.14,79.87,441.42,79Z"/><path class="cls-47" d="M344.25,92c-1.95,1.23-4.13,1-6.27,1h-63.6c-2.16,0-4.32-.13-6.27,1.06a20.52,20.52,0,0,1-4-10c1.37-1.52,3.25-1.58,5.06-1.59,16.58,0,33.16-.21,49.74.07a4.13,4.13,0,0,1,2.4.46C329,85.82,336.82,88.42,344.25,92Z"/><path class="cls-48" d="M1491,90c-.49,4.28,1.67,5.09,5.57,5.06,19.86-.18,39.73-.08,59.6-.07l0,6c-1.91,1.75-4.31,1.6-6.63,1.6q-36.25.06-72.49,0c-2.29,0-4.72.27-6.61-1.57q0-5.5,0-11A28.61,28.61,0,0,1,1491,90Z"/><path class="cls-49" d="M741.07,52V66c-1.57,1.59-3.62,1.56-5.6,1.57q-16.47.1-32.93,0c-1.83,0-3.68,0-5.23-1.25a44.55,44.55,0,0,1-.12-14.54c1.5-1.29,3.34-1.33,5.15-1.35q16.59-.13,33.18,0C737.49,50.44,739.52,50.42,741.07,52Z"/><path class="cls-50" d="M264.34,60q20.6,0,41.2,0c2.07,0,4.43-.61,5.67,1.93-3,3.13-3.43,7-3.07,11.06-1.88,1.88-4.32,1.51-6.6,1.53-9.66.07-19.33.17-29,0-4.14-.09-7.54.55-9.4,4.69C261.53,72.66,262.38,66.3,264.34,60Z"/><path class="cls-51" d="M1202.4,41h150c2.31,0,4.68.34,6.79-1l2.2,2.94c-1.45,2.32-3.81,2.39-6.13,2.42-8.09.09-16.19,0-24.28,0-2.6,0-5-.28-5.82-3.38-15,0-30,.15-44.94-.11-4.13-.07-5.27,1-5.25,5.21.22,45.93.15,91.87.39,137.81,0,4.77-1.17,6.66-6,6-5.35-.72-10.86,1.05-16.16-.9,3.91-2.72,8.35-1.37,12.56-1.53,6.76-.24,6.86-.19,6.91-7,.06-8.11-.13-16.22.09-24.33-.13-4.35-.15-8.7,0-13-.12-5.85-.17-11.7,0-17.54,0-2.08-.11-4.17,0-6.25,0-1.46-.07-2.92,0-4.39-.09-2.33-.05-4.66,0-7-.11-2.65-.08-5.31,0-8-.1-3.58-.11-7.15,0-10.72-.06-2.09-.09-4.17,0-6.26-.1-3-.09-6,0-9-.11-3-.1-6,0-9-.11-3.85-.13-7.7,0-11.54,0-1.14-.12-2.3,0-3.45.28-3.5-1.5-4.71-4.76-4.54-1.8.1-3.62,0-5.43,0-7.79,0-7.79,0-7.91,7.87.14,3.85.13,7.7,0,11.54.08,3,.11,6,0,9,.07,3,.1,6,0,9,.08,2.09.08,4.17,0,6.26.1,3.58.11,7.15,0,10.72.06,2.65.11,5.31,0,8,0,2.33.09,4.66,0,7,0,1.46.06,2.92,0,4.39.14,2.08,0,4.17,0,6.25.18,5.86.16,11.71,0,17.57.16,4.41.14,8.83,0,13.24.28,9.07.1,18.14.1,27.22,0,2-.15,4-1.59,5.57-1.65-1.69-.81-3.8-.81-5.68,0-45.59,0-91.18.26-136.77,0-4.72-1.4-5.77-5.84-5.68-13.3.28-26.62.14-39.93,0C1205.41,41.94,1203.55,42.91,1202.4,41Z"/><path class="cls-52" d="M501.23,67.84c-.81-2.95-3.25-1.78-5-1.79-14.32-.09-28.64,0-43-.06-2,0-4,.29-5.8-.94a31.82,31.82,0,0,1,6-9c1.78,1.24,3.81,1,5.79,1q30.17,0,60.33,0a21.38,21.38,0,0,1,9.61,1.82A58.3,58.3,0,0,0,501.23,67.84Z"/><path class="cls-30" d="M1760.43,23.93c2.7,0,5,1.25,7.47,2.14,6.44,2.39,6.41,2.45,3.42,9.09-21.59-1.24-43.2-.22-64.8-.59-2.76,0-5.71.58-8.11-1.53a38.1,38.1,0,0,1,17.64-9.12A156.32,156.32,0,0,1,1760.43,23.93Z"/><path class="cls-53" d="M441.42,79a8,8,0,0,1,4.76-1c13.21,0,26.41,0,39.62,0,1.62,0,3.84-.91,4.41,1.84L485.27,92c-1.81-2.27-4.36-2.05-6.85-2.05H438.5A42.42,42.42,0,0,1,441.42,79Z"/><path class="cls-54" d="M879.4,116v-7c1.4-1.46,3.26-1.59,5.09-1.57,25.25.27,50.5-.08,75.75.05,1.94,0,4.57-.46,5.07,2.67a27.29,27.29,0,0,1-10.12,6.72c-23.72,1.57-47.47.4-71.2.65A5.86,5.86,0,0,1,879.4,116Z"/><path class="cls-44" d="M1105.29,40c-.09-7-.09-7,6.84-7l78.24,0c2.28,1.27,4.5,2.6,5.66,5.1-1.25,2.71-3.8,2.34-6,2.39-7.29.14-14.59.08-21.89,0-1.84,0-3.65,0-5.26,1-4.49.76-8.78-.93-13.21-1.1-7.94-.31-15.73,1.1-23.6,1.63-4.72-.67-9.48-.48-14.22-.54C1109.55,41.48,1107.2,41.71,1105.29,40Z"/><path class="cls-39" d="M376.93,119a20.6,20.6,0,0,1-6.84,1q-30.22-.08-60.43,0c-1.89,0-4.06-.79-5.55,1.24-4.83-1.7-9.62-3.49-13.82-6.54,2-1.91,4.54-1.75,7.05-1.74q34.24,0,68.48,0c2.15,0,4.36.32,6.31-1A17.11,17.11,0,0,1,376.93,119Z"/><path class="cls-52" d="M642.18,66H598.35a32.57,32.57,0,0,1-.08-13.32C600,51.36,602,51.42,604,51.41q16.09-.08,32.17,0c2.14,0,4.33,0,6.06,1.59Z"/><path class="cls-53" d="M211.41,90q0-6.5,0-13c1.72-1.72,3.95-1.58,6.09-1.59,10.47-.07,20.94-.1,31.41,0,6.46.06,6.85.5,6.8,6.72,0,2.65.35,5.31-.28,7.94-1.6,1.52-3.64,1.49-5.61,1.5q-16.41.11-32.82,0C215,91.57,213,91.59,211.41,90Z"/><path class="cls-55" d="M741.07,52H697.36a29.51,29.51,0,0,1,0-13h43.72Z"/><path class="cls-19" d="M642.19,29q0,6.5,0,13c-1.44,1.37-3.26,1.55-5.09,1.56-11.43.09-22.85.11-34.28,0a6.63,6.63,0,0,1-4.66-1.37c-.86-3.26-.09-6.59-.42-9.86s1.09-4.71,4.13-4.78q18.36-.44,36.72,0A5.25,5.25,0,0,1,642.19,29Z"/><path class="cls-44" d="M879.4,33q38.23,0,76.46,0c1.89,0,4.07.78,5.54-1.26,2.65,2,6.16,3,7.7,6.31-1.77,2.65-4.57,2.41-7.19,2.45-7.15.1-14.29.07-21.44,0-2,0-4-.11-5.76,1.08-10.8,0-21.6-.11-32.4.16-5-2.09-10.18-.85-15.28-1.2-2.6-.18-5.38.5-7.62-1.51Q879.4,36,879.4,33Z"/><path class="cls-56" d="M504.28,149a26.89,26.89,0,0,1-8.31,1c-16.58-.06-33.17,0-49.75,0a24.67,24.67,0,0,1-4.29-9.92c1.2-1.43,2.9-1.59,4.55-1.61,14.64-.19,29.29,0,43.93-.08a10.38,10.38,0,0,1,2.94.56Z"/><path class="cls-57" d="M263.16,79.18c-.77-5,1.18-6.47,6.28-6.31,12.89.4,25.81.13,38.71.13,2.87,5.31,8.52,7,13.13,10A26.91,26.91,0,0,1,313,84c-16.29,0-32.58,0-48.86,0C262.93,82.58,263.1,80.87,263.16,79.18Z"/><path class="cls-58" d="M493.34,139c-1.94,1.21-4.11,1-6.26,1.05l-45.16.09a25.84,25.84,0,0,1-2.78-9.92c.89-1.32,2.26-1.17,3.57-1.17q20.57,0,41.14,0a8,8,0,0,1,4.27,1Z"/><path class="cls-59" d="M85.12,11,85,32.73c-12.86,2-24,7.72-33.79,16-2.84,2.4-5,5.54-7.55,8.35C36,66,27.21,73.94,19,82.4a12.32,12.32,0,0,1-3.74,2.44h-4c-.39-2.43,1.56-3.55,2.9-4.89q33-33.08,66.06-66.06C81.57,12.55,82.67,10.57,85.12,11Z"/><path class="cls-60" d="M329.25,132c1.85-2.19,4.38-2,6.86-2h44.16c1.42,3.58,1.16,7.29.91,11-1.92,1.73-4.31,1.52-6.61,1.53-9,0-17.92.09-26.88,0A37.77,37.77,0,0,0,335.45,144C335.85,138.69,333,135.1,329.25,132Z"/><path class="cls-61" d="M1573.29,116v-7c1.75-1.63,4-1.59,6.12-1.6,19.81,0,39.62-.07,59.43,0,2.31,0,5.12-.65,6.36,2.43,1.84,3.23,6.35,2.86,8.2,6.08-2,2-4.62,1.64-7.08,1.66-10.66.08-21.31,0-32-.57-11.32-.65-22.62.83-33.94.58C1577.94,117.56,1575.36,117.87,1573.29,116Z"/><path class="cls-62" d="M697.36,66h43.72V78c-1.41,1.46-3.27,1.54-5.09,1.55q-16.94.15-33.88,0a7.48,7.48,0,0,1-4.74-1.2A27,27,0,0,1,697.36,66Z"/><path class="cls-63" d="M211.41,118q0-6,0-12c1.41-1.46,3.27-1.54,5.1-1.56q17-.15,33.91,0a7.35,7.35,0,0,1,4.74,1.22,32.36,32.36,0,0,1,.12,12.57c-1.66,1.39-3.68,1.33-5.65,1.35q-16.08.09-32.17,0C215.33,119.57,213.11,119.7,211.41,118Z"/><path class="cls-61" d="M1176.28,110.07c1.88,2.37,5.35,2.4,7.18,4.85-1.89,2.77-4.85,2.61-7.63,2.63-9.78.08-19.55.09-29.33-.5-11.1-.67-22.2.63-33.3.54-2.31,0-4.66.17-6.9-.63a3.14,3.14,0,0,1-1.41-1.25,28.93,28.93,0,0,1,.08-6.61,3.53,3.53,0,0,1,1.54-1.13,16.6,16.6,0,0,1,5.42-.56c19.08,0,38.16-.08,57.23.06C1171.66,107.49,1175,106.33,1176.28,110.07Z"/><path class="cls-20" d="M523.48,106h64.59q0,4,0,8l-64.58,0A9.49,9.49,0,0,1,523.48,106Z"/><path class="cls-64" d="M255.12,118V106c-2-2.74-1.25-5.89-1.32-8.92,0-2.44-.37-5,1.33-7.08.38-13,.38-13-12.3-13H211.41c-.46-8.54-.46-8.54,7.94-8.54,10.83,0,21.65.08,32.48,0,3,0,4.36.52,4.35,4.07-.12,38.14,0,76.28-.06,114.41,0,1.06.56,2.37-.81,3.12q-.09-21-.18-42c-2.25-3.4-1.16-7.2-1.32-10.85q-.14-4.13,0-8.26C254,125.24,252.85,121.42,255.12,118Z"/><path class="cls-65" d="M588.07,149H545.29V137c1.58-1.49,3.58-1.56,5.57-1.58q15.83-.1,31.66,0c2,0,4,0,5.55,1.57Z"/><path class="cls-66" d="M1076.48,125.9l-95.41,0a12.1,12.1,0,0,1,2.06-6c6.54-2.88,13.32-1.31,20-1.1,7.07,1.14,14.19.43,21.28.52q13.64.18,27.28-.06c7.6-.95,15.21-2.17,22.71.61A14.66,14.66,0,0,1,1076.48,125.9Z"/><path class="cls-44" d="M1698.41,33q34.08,0,68.15,0c1.8,0,4.22-.89,4.75,2.13a2.51,2.51,0,0,1,0,.5c-2.59,10.64-2.62,10.71-12.38,7.14a64.9,64.9,0,0,0-33.68-3c-7.76-.63-15.53,0-23.29-.3-2.78-.09-5.76.28-7.7-2.48A10.2,10.2,0,0,1,1698.41,33Z"/><path class="cls-60" d="M642.19,131q0,5.5,0,11c-1.45,1.37-3.28,1.55-5.12,1.56q-17,.14-34,0a7.43,7.43,0,0,1-4.75-1.21,26.45,26.45,0,0,1-.12-11.6c1.67-1.38,3.7-1.32,5.67-1.33q16.11-.09,32.22,0C638.25,129.42,640.45,129.38,642.19,131Z"/><path class="cls-23" d="M598.34,42h43.84q0,5.5,0,11H598.35A21.83,21.83,0,0,1,598.34,42Z"/><path class="cls-67" d="M255.12,137q0,5.5,0,11H211.41q0-5.5,0-11c1.57-1.59,3.62-1.56,5.61-1.57q16.24-.11,32.49,0C251.5,135.44,253.54,135.45,255.12,137Z"/><path class="cls-41" d="M255.12,118q0,5.5,0,11c-1.58,1.55-3.63,1.55-5.62,1.56q-16.24.1-32.48,0c-2,0-4,0-5.61-1.57q0-5.5,0-11Z"/><path class="cls-68" d="M588.07,137H545.3L545,126.09l43.09-.09Q588.07,131.5,588.07,137Z"/><path class="cls-69" d="M185.22,1.14l2.76.07q.1,40.34.16,80.67c0,1,.74,2.39-.92,2.93-2.32-2.69-1.06-6-1.48-9-.09-5.22,0-10.44,0-15.66-.19-3.35.09-6.7,0-10-.17-2.72.08-5.43,0-8.14-.12-3.88,0-7.75,0-11.63-.1-2,0-4,0-6s0-4.23.06-6.35c-.07-1.79.46-3.62-.64-6.45-15,13.91-28.54,28.63-43,42.4l-4-4c-1.43-2.2.38-3.45,1.57-4.65,13.83-14,27.76-27.84,41.66-41.74A14.18,14.18,0,0,1,185.22,1.14Z"/><path class="cls-70" d="M85.12,11C79.76,16.26,74.33,21.42,69,26.72q-28.93,29-57.77,58.11h-5c.09-2.1,1.79-3.1,3-4.36Q45,44.72,80.75,9C82,7.76,83,6.06,85.12,6Q85.12,8.52,85.12,11Z"/><path class="cls-20" d="M484.12,115l-46.66,0c-.66-10-.66-10,9.14-10,10.13,0,20.26.19,30.38-.09,4.38-.12,7.2.47,6.3,5.76-.12.7.46,1.52.72,2.28Z"/><path class="cls-71" d="M1429.15,190.1c5.64-.05,11.29-.26,16.93-.1,3.14.09,4.4-.74,4.34-4.14-.21-12-.13-23.91-.17-35.86-2.67-4-1.21-8.48-1.47-12.76-.07-3.62-.13-7.24,0-10.86,0-2.05-.1-4.11,0-6.16,0-1.45-.06-2.9,0-4.35-.1-2.33-.05-4.65,0-7-.11-2.65-.08-5.31,0-8-.1-3.58-.11-7.15,0-10.72-.06-2.09-.09-4.17,0-6.26-.1-3-.09-6,0-9-.11-3-.1-6,0-9-.11-3.93-.13-7.85,0-11.78-.07-3-.12-6,0-8.93,0-2-.11-4,0-5.93-.27-5.82-.29-5.84-5.8-5.91q-2.21,0-4.43,0c-5.58.07-5.62.11-5.95,5.81.12,2,.06,4,0,5.93.12,3,.09,6,0,8.93.12,3.93.12,7.85,0,11.78.08,3,.11,6,0,9,.08,3,.1,6,0,9,.08,2.09.08,4.17,0,6.26.1,3.58.11,7.15,0,10.72.06,2.65.11,5.31,0,8,0,2.33.09,4.67,0,7,0,1.47.06,2.94,0,4.41s-.15,3-1.58,4c-1.51-5.21-.7-10.56-.73-15.81-.14-26.8.1-53.6,0-80.4,0-4.07,1.23-5.3,5.09-4.9,5.07.53,11.64-2.13,14.87,1.12,3,3,.87,9.51.89,14.46.12,48.94.1,97.88.32,146.81,0,4.45-1.17,6-5.57,5.48C1440.32,190.33,1434.65,191.86,1429.15,190.1Z"/><path class="cls-58" d="M697.35,139c-.32-10-.32-10,9.8-10h33.92v10c-1.57,1.59-3.62,1.56-5.61,1.57q-16.24.11-32.49,0C701,140.56,698.94,140.56,697.35,139Z"/><path class="cls-72" d="M598.34,42q0,5.5,0,11,0,6.5,0,13,0,7.5,0,15,0,5.5,0,11,0,2.5,0,5a2.37,2.37,0,0,1,0,3q0,3,0,6,0,4,0,8,0,2.5,0,5t0,5a5.6,5.6,0,0,1,0,7q0,5.5,0,11a6.64,6.64,0,0,1,0,8q-.11,20-.23,40c-1.54-1.34-.74-3.12-.74-4.66,0-52.23.05-104.46-.06-156.69,0-4.17.69-5.78,5.35-5.62,11.46.39,23,.39,34.42,0,5-.17,6.21,1.56,5.11,6-13.16,0-26.33.11-39.49-.07-3.55,0-4.79,1.14-4.49,4.59C598.45,36.34,598.31,39.18,598.34,42Z"/><path class="cls-24" d="M598.35,100q0-1.5,0-3H741.07q0,1.5,0,3Z"/><path class="cls-73" d="M1413.26,126a86.39,86.39,0,0,1,9.84,17c-1.91,1.77-4.32,1.45-6.61,1.49-5.13.1-10.28-.27-15.37.77a170.88,170.88,0,0,1-12-19.23,4.81,4.81,0,0,1,4.07-1.51C1399.89,124.94,1406.77,122.86,1413.26,126Z"/><path class="cls-74" d="M335.45,144c.92-2.58,2.79-3.06,5.39-3,13.45.13,26.9.06,40.35.06.16,3.06.2,6.1-1.05,9q-20.4,0-40.79,0c-2,0-4,.35-5.78-.92Z"/><path class="cls-75" d="M171.24,103.05h6c.52,2.46-1.48,3.56-2.81,4.9Q141.79,140.7,109,173.32c-1.33,1.33-2.43,3.88-5.19,2.36-.15-1.69-.07-3.38-.06-5.07.35-1.92,1.76-3.11,3.06-4.36,6.74-6.48,12.81-13.67,20.4-19.25a75,75,0,0,0,21.21-22c5.68-6.24,11.78-12.06,17.69-18.07A18.93,18.93,0,0,1,171.24,103.05Z"/><path class="cls-76" d="M170.21,1.15h8c1.31,2.44-.73,3.64-2,5-4.12,4.3-8.27,8.58-12.62,12.64-8.34,7.81-15.39,16.84-23.67,24.7-1.41,1.34-2.55,3.1-4.69,3.48l-5-4c-.37-3.07,1.81-4.86,3.6-6.68,10.69-10.86,21.52-21.58,32.27-32.37A14.08,14.08,0,0,1,170.21,1.15Z"/><path class="cls-77" d="M1.4,180V170c12.42-13.17,25.5-25.7,38.28-38.52,1.07-1.07,2.2-2.75,4.2-1.47l3.68,4.83c-.47,1.69-1.77,2.77-2.94,3.93Q25.47,158,6.27,177.1C4.93,178.43,3.82,180.38,1.4,180Z"/><path class="cls-29" d="M255.13,97q0,4.5,0,9H211.41V97C213,95.41,215,95.44,217,95.43q16.25-.11,32.5,0C251.51,95.44,253.55,95.46,255.13,97Z"/><path class="cls-73" d="M1647.23,145c-2.39-6.31-4.58-12.72-9-18a1.57,1.57,0,0,1,1.31-1.82c7.52-.9,15.06-2,22.44.84,3.11,5.28,5.71,10.75,6.28,17-1.94,1.69-4.33,1.48-6.63,1.48A116.82,116.82,0,0,0,1647.23,145Z"/><path class="cls-78" d="M187.13,30.06v12C179.3,50.45,171,58.33,162.9,66.48a94,94,0,0,0-8.68,9.58l-4-10.05c.3-1.78,1.68-2.81,2.84-4q14.57-14.62,29.21-29.18C183.6,31.54,184.68,29.53,187.13,30.06Z"/><path class="cls-66" d="M900.26,190l-.13-35c-2.39-3.73-1.15-7.88-1.35-11.85-.16-3.64-.14-7.3,0-10.94.09-3.42-1.41-4.81-4.76-4.7-3.15.1-6.3.07-9.45,0-1.82-.05-3.68,0-5.12-1.47q0-3,0-6c1.4-1.46,3.26-1.55,5.08-1.56,18.9-.09,37.8-.12,56.7,0,1.86,0,4.13-.26,5,2.26-13.28,4.67-27,5.21-40.74,3.54-3.77-.46-4.41.42-4.38,3.9.15,18.92.11,37.84,0,56.75C901.08,186.62,902,188.58,900.26,190Z"/><path class="cls-79" d="M1470.48,115q0-3,0-6c1.86-1.89,4.3-1.61,6.59-1.62q36.25-.08,72.49,0c2.32,0,4.71-.15,6.63,1.61.93,3.67-1.66,3.15-3.78,3.15-18.44,0-36.88.12-55.32-.09-4,0-5.44.84-5.36,5.15.37,18.26.38,36.52.51,54.78-2.26-3.66-.7-7.69-1.07-11.53-.24-2.47-.15-5-.2-7.45-2.16-3.81-1-7.94-1.19-11.95-.11-4.9-.15-9.8,0-14.7,0-2-.12-4.1,0-6.15,0-2.83-1.73-3.68-4.21-3.73-3.32-.07-6.64,0-10-.06C1473.79,116.37,1471.92,116.48,1470.48,115Z"/><path class="cls-80" d="M1191.22,101.73a17,17,0,0,1-6,4.09c-10.93,1.52-21.91.62-32.87.75-13.14.15-26.28.06-39.42,0-2.47,0-5,.28-7.31-1-1.3-1.42-.94-3-.41-4.57l.12,0c2.51-2.15,5.56-1.53,8.44-1.56,4.07-.05,8.15-.17,12.23.08,14.05-.45,28.22,1.18,42.12-2.26,4.57,1.88,9.39,1,14.11,1.2,2.13.09,4.29-.19,6.38.29C1190,99.11,1192.14,99.14,1191.22,101.73Z"/><path class="cls-81" d="M43.88,130c-2.06.2-3,1.92-4.3,3.17Q22.82,149.87,6.11,166.6C4.74,168,3.68,169.86,1.4,170q0-4,0-8a14.58,14.58,0,0,1,3.47-4.8c9.88-9.85,19.7-19.76,29.65-29.55,1.49-1.46,2.72-4.13,5.7-2.62Z"/><path class="cls-78" d="M42.24,187h-12c-.66-2.25,1.16-3.3,2.36-4.5q15-15.16,30.17-30.18c1.22-1.21,2.29-3,4.52-2.36l7,3c-.52,2.29-2.46,3.49-3.92,5C61.11,167.78,50.84,176.6,42.24,187Z"/><path class="cls-82" d="M136.18.85l11.06.31c1.23,1.69,0,2.88-1,3.89C136.58,14.89,126.88,24.7,117,34.29a3.75,3.75,0,0,1-1.78.85c-2.66-.68-5.5-.71-7.94-2.18-1.34-1.91.13-3.17,1.22-4.26C117.7,19.48,126.65,10,136.29,1.14Z"/><path class="cls-73" d="M1126.07,126q0,8.49,0,17c-6.93,2.63-13.9,2.27-20.88.23a78.84,78.84,0,0,1-.09-17.36C1112.11,123.62,1119.1,123.38,1126.07,126Z"/><path class="cls-73" d="M879.41,126c5.31,0,10.64.26,15.93-.1,4.15-.28,5.19,1.38,4.93,5.15-.28,4-.11,8-.14,11.95a29.67,29.67,0,0,1-20.72,0Q879.41,134.51,879.41,126Z"/><path class="cls-68" d="M211.41,129h43.71q0,4,0,8H211.41Q211.41,133,211.41,129Z"/><path class="cls-65" d="M697.35,139h43.72q0,4,0,8H697.35Q697.35,143,697.35,139Z"/><path class="cls-74" d="M598.34,150q0-4,0-8h43.84q0,4,0,8Z"/><path class="cls-53" d="M697.36,78h43.71v8Q722,86,703,86c-2,0-4,.11-5.74-1A9.68,9.68,0,0,1,697.36,78Z"/><path class="cls-83" d="M142.25,54c0-2.32,1.94-3.39,3.31-4.76q17.42-17.51,35-34.9c1.64-1.62,3-5,5.73-3.75,2.23,1.05.65,4.23.9,6.45-12.77,13.28-26,26.12-39,39.18A4.93,4.93,0,0,1,145.25,58Z"/><path class="cls-84" d="M1347.1,54l-.9-1c-2.09-.84-1.77,2.51-3.63,2.1-5.59.06-11.31,1.86-16.64-1.28-.52-9.34-.52-9.27,8.74-9.36,8.47-.09,17,.42,25.42-.3a4.1,4.1,0,0,1,2.81.82l5.53,8.93A30.75,30.75,0,0,1,1347.1,54Z"/><path class="cls-85" d="M1573.29,116l80.1-.05a10.45,10.45,0,0,1,4.19,3.93c-1.32,1.6-3.21,1.65-5,1.63-7.76-.06-15.56.65-23.28-.76-10.32-3.76-21.05-2.3-31.65-2.59-3.66-.1-2.79,2.55-2.8,4.52,0,20.65,0,41.3,0,62,0,1.75.71,3.66-.67,5.26L1594,152c-2.09-3.48-1-7.31-1.2-11-.13-4.87-.15-9.75,0-14.62.29-4-2-4.82-5.52-5-4.66-.22-9.55,1.35-14-1.4Q1573.29,118,1573.29,116Z"/><path class="cls-86" d="M1470.46,101l85.73,0v4c-1.91,1.76-4.31,1.6-6.63,1.6q-36.24.06-72.49,0c-2.29,0-4.72.28-6.6-1.59Q1470.47,103,1470.46,101Z"/><path class="cls-87" d="M1470.47,105h85.71v4l-85.71,0Q1470.47,107,1470.47,105Z"/><path class="cls-80" d="M1594,100c.48.62,1,1.79,1.43,1.79,9.29,0,18.61,1.22,27.85-.6,2.41-2.36,5.46-2.31,8.51-2.25,7.1,1.1,14.25.12,21.36.55,2.26.14,5.12-.74,6.12,2.57a13.55,13.55,0,0,1-5.14,3.6,59.23,59.23,0,0,1-12.39.94c-20.28,0-40.57,0-60.85,0-2.62,0-5.38.38-7.61-1.59v-5A29.28,29.28,0,0,1,1594,100Z"/><path class="cls-88" d="M1.4,180q20.83-20.65,41.67-41.28c1.4-1.38,3-2.57,4.5-3.85l3.85,4.09c-15,15.14-30.11,30.11-45.13,45.21a30.18,30.18,0,0,1-4,2.86C.26,184.87,1.51,182.34,1.4,180Z"/><path class="cls-82" d="M1.4,148V137c9.09-9.82,18.79-19,28.27-28.46,1.08-1.07,2.51-3.14,4.3-.58L36,115c-10,10.85-20.78,21-31.18,31.47C3.94,147.39,3,148.42,1.4,148Z"/><path class="cls-89" d="M34,108c-2.19-1.32-2.93.8-4,1.82-8.12,8-16.16,16.13-24.26,24.18-1.26,1.25-2.26,2.94-4.34,3q0-5.52,0-11c7.32-7.92,15.05-15.44,22.82-22.91a26.72,26.72,0,0,0,3.88-.24C32.4,101.94,34,104,34,108Z"/><path class="cls-69" d="M2.24,187q14.27-14.53,28.55-29c5.36-5.43,10.77-10.8,16.17-16.17,1.27-1.27,2.37-2.85,4.46-2.86l2,1.74c.52,3.09-1.68,4.92-3.45,6.71C36.76,160.66,23.65,174,10.24,187Z"/><path class="cls-90" d="M170.21,1.15q-16.5,16.7-33,33.37A42.45,42.45,0,0,0,130.26,43l-5-3.12c-.35-2.88,1.67-4.59,3.36-6.31,9.76-9.94,19.67-19.73,29.5-29.6a13.78,13.78,0,0,1,4.08-2.78Z"/><path class="cls-91" d="M1573.29,105q37.78,0,75.56,0c1.77,0,3.66-.54,5.3.66a33.5,33.5,0,0,1-8.95,4.18c-1.55-1.46-3.47-.84-5.23-.84q-33.34-.06-66.68,0Q1573.29,107,1573.29,105Z"/><path class="cls-92" d="M1594,126.11q0,7.46,0,14.91a29.7,29.7,0,0,1-20.69,0q0-7.5,0-15A28.48,28.48,0,0,1,1594,126.11Z"/><path class="cls-87" d="M1105.3,105q37.32,0,74.64,0c1.76,0,3.67-.6,5.25.79a31.54,31.54,0,0,1-8.91,4.25c-1.26-1.59-3-1.05-4.64-1.05q-33.16,0-66.32,0A3.56,3.56,0,0,1,1105.3,105Z"/><path class="cls-83" d="M10.24,187c0-2.32,1.91-3.4,3.28-4.76Q30.19,165.5,47,148.82a36.53,36.53,0,0,0,6.43-8.15l3.94,4.13c.75,1.57-.37,2.56-1.26,3.45-12.9,13-25.71,26-38.83,38.76Z"/><path class="cls-93" d="M67.28,150q-19.17,17.87-37,37h-7c-1.26-1.64-.15-2.9.86-3.92C36,171.05,47.83,159,60,147.26a3.65,3.65,0,0,1,1.35-.63Z"/><path class="cls-94" d="M255.13,97H211.41V90h43.73Q255.13,93.51,255.13,97Z"/><path class="cls-95" d="M598.35,131q0-3.5,0-7l44.32.14-.48,6.86Z"/><path class="cls-96" d="M187.13,30.06Q171.07,45.9,155,61.73c-1.52,1.5-3.18,2.86-4.78,4.28a7.28,7.28,0,0,1-2.06-3.79c-1.05-1.84,0-3.21,1.16-4.4,10.92-11.07,21.88-22.12,33-33,1.3-1.27,2.88-2.42,4.8-.82Z"/><path class="cls-97" d="M362.23,25.07C360,26.75,357.43,27,354.75,27q-23.6,0-47.21,0c-2.35,0-4.67,0-6.32-2.06,14.36-5.4,29.24-4.56,44.09-3.39C351,22,356.81,22.83,362.23,25.07Z"/><path class="cls-98" d="M104.37,176q23.17-23,46.32-46c8.92-8.92,17.7-18,26.55-27h4c-1.68,1.83-3.3,3.73-5.05,5.48q-33.87,33.91-67.77,67.78c-1.29,1.29-2.69,2.47-4,3.7A3.21,3.21,0,0,1,104.37,176Z"/><path class="cls-99" d="M965.32,110.15c-1.56-1.9-3.71-1.11-5.6-1.12q-40.16-.07-80.31,0v-4c4.61-2.85,9.71-1.05,14.57-1.49a20,20,0,0,1,5.45.33c.89.14,1.74.47,2.64.62,11.77,1.57,23.51,2.12,35.14-1.07a10.18,10.18,0,0,1,3.46-.39c7.58,1,15.2.17,22.79.46,2.43.09,5-.41,7,1.62A14.18,14.18,0,0,1,965.32,110.15Z"/><path class="cls-100" d="M187.12,50.07v10c-4.3,6.83-10.81,11.6-16.25,17.37-2.58,2.74-4.91,5.89-8.6,7.4-2.71-.54-7.5,2.64-6.89-3.85a13.75,13.75,0,0,1,3.15-4.44c8-8,16-16,24.07-24C183.82,51.33,184.87,49.53,187.12,50.07Z"/><path class="cls-85" d="M946.17,120.74c-1.62-1.28-3.53-.71-5.31-.72q-30.73-.06-61.46,0,0-2,0-4,35.29,0,70.58,0c1.75,0,3.68-.62,5.22.85A28.36,28.36,0,0,1,946.17,120.74Z"/><path class="cls-101" d="M523.48,106q0,4,0,8-.12,5.81-.24,11.62c-1.28-10.72-.23-21.48-.52-32.22-.06-2.14,1.33-2.28,3-2.27,19.94,0,39.87.07,59.81,0,3.34,0,2.81,1.87,2.56,3.89H529.67c-6.43,0-6.44,0-6.39,6.53C523.28,103,523.41,104.52,523.48,106Z"/><path class="cls-102" d="M1012.45,33c2.9-9.87,2.9-9.87,13.2-9.87h6c10.38,0,10.38,0,13.33,9.87A70,70,0,0,1,1012.45,33Z"/><path class="cls-103" d="M187.12,50.07Q173.45,63.52,159.77,77c-1.42,1.39-2.93,2.69-4.4,4l-1.15-4.92A5.32,5.32,0,0,1,156,71.68c9.14-9.07,18.2-18.21,27.36-27.26a20.17,20.17,0,0,1,3.73-2.36Q187.12,46.07,187.12,50.07Z"/><path class="cls-89" d="M136.29,1.14c-.16,2-1.8,3.08-3.05,4.33-7.67,7.72-15.39,15.39-23.07,23.11-1.25,1.25-2.92,2.27-2.93,4.38l-2-.21c-2.87-2.54-.86-5.88-1.45-8.79.57-3.16,3.59-4.19,5.52-6.1,5.65-5.57,10.86-11.58,16.93-16.72Z"/><path class="cls-104" d="M993.36,153.23c-2-2.23-4.59-1-6.91-1.19-4.67-.36-9.45.65-14-1l4-12h21.7C996.79,143.82,995.61,148.71,993.36,153.23Z"/><path class="cls-105" d="M1085.11,151c-7.6-2.12-15.35-.48-23-.94-2-3.75-2.94-7.9-4.21-11.92,7.42-.4,14.91.44,22.27-1.12C1082.06,141.57,1084.07,146.11,1085.11,151Z"/><path class="cls-106" d="M115.19,35.14c9-10.31,19.2-19.39,28.64-29.25,1.34-1.4,3.27-2.44,3.42-4.73h9c.46,1.55-.57,2.53-1.48,3.44-11.15,11.07-22,22.5-33.48,33.19Z"/><path class="cls-106" d="M1.4,148q15-14.79,30-29.56c1.37-1.35,2.41-3.24,4.67-3.41-.35,2.08,1.65,3.23,2,5-.36,1.95-1.82,3.13-3.1,4.42q-14.3,14.33-28.64,28.6c-1.35,1.34-2.45,3.3-4.88,2.91Z"/><path class="cls-85" d="M1105.28,116q34.93,0,69.85,0a27.41,27.41,0,0,0,8.33-1.11,12.63,12.63,0,0,1,5.65,5.11c-1.73,1.69-4,1.49-6.08,1.48-7.26,0-14.53.4-21.76-.62-10.7-3.89-21.84-2.49-32.84-2.75-1.4,0-2.17.48-2.35,1.86-6.35,2.81-12.94,1.24-19.46,1.07a3.75,3.75,0,0,1-1.51-.9C1104.68,118.77,1104.42,117.36,1105.28,116Z"/><path class="cls-107" d="M1346.07,126q0,7,0,14c-6.59,2.55-13.22,2.23-19.86.24a52.39,52.39,0,0,1-.09-14.4C1332.79,123.67,1339.44,123.44,1346.07,126Z"/><path class="cls-108" d="M162.26,84.83c8-8.54,16.19-16.89,24.85-24.76q0,8,0,16a20.37,20.37,0,0,1-8.89,8.82Z"/><path class="cls-109" d="M1205.19,54a25.55,25.55,0,0,1,1.89,12c-3.38,2.49-7.29,1.37-11,1.4-4.43,0-8.76-.36-9.29,5.77-.06.64-.83.94-1.54,1a4.39,4.39,0,0,1-1.4-3.56,40.45,40.45,0,0,0-2-13.06c-.46-1.39-.67-2.93.71-4.09C1190.15,52.06,1197.71,51.24,1205.19,54Z"/><path class="cls-110" d="M1374.14,102.17a62.52,62.52,0,0,1-6.85-11.26,1.53,1.53,0,0,1,1.35-1.79c7.57-.82,15.17-1.94,22.6.87a65.36,65.36,0,0,1,7,11,5.06,5.06,0,0,1-4,1.44C1387.51,102.44,1380.82,103,1374.14,102.17Z"/><path class="cls-111" d="M1706.46,54c-1.7,4.85-1.7,9.86-1.45,14.9-5.49-2.37-11.27-1.3-17-1.5-2.71-.1-3.36,2.27-4.85,3.65-1.44-5.83-.36-11.47,1.22-17.08A32.23,32.23,0,0,1,1706.46,54Z"/><path class="cls-112" d="M1703.28,101.9a16.14,16.14,0,0,1-6.12-4.7c-.93-3.47,1.83-3.54,3.77-3.58,10.54-.18,21.09-.73,31.62.27a69.69,69.69,0,0,1,16.74,7.1,4.53,4.53,0,0,1-3.6,1.46C1731.56,102.38,1717.4,103.33,1703.28,101.9Z"/><path class="cls-113" d="M1401.13,145.26c.36-2.65,2.4-2.24,4.17-2.25,5.94,0,11.87,0,17.81,0,2.13,3.94,4.73,7.65,6.07,12-7,.4-14.23-1.39-21.12,1.37A60.37,60.37,0,0,1,1401.13,145.26Z"/><path class="cls-110" d="M978.28,92.09a21.87,21.87,0,0,1-4.64,9,49.57,49.57,0,0,1-25.52,0c-.8-.65-1.62-1.57-.71-2.43,3.43-3.19,5.55-7.74,10-9.85,5.64-.82,11.3-.52,16.94-.26C976.26,88.72,979.25,88.41,978.28,92.09Z"/><path class="cls-114" d="M135.27,46.93c12.88-14,26-27.77,39.59-41.08,1.38-1.35,3.25-2.42,3.39-4.7h7q-21.85,22-43.68,44.1c-1.36,1.37-3.24,2.44-3.29,4.75Z"/><path class="cls-54" d="M1762.47,108.91A16,16,0,0,1,1769,115c-2,2-4.63,1.44-7,1.5-8.9.21-17.81-.31-26.71.34l-17-6.95c.37-2.22,2.25-2.3,3.79-2.34,11.89-.3,23.78-.32,35.66,0A12.29,12.29,0,0,1,1762.47,108.91Z"/><path class="cls-109" d="M1052.06,54l4.06,12c-1.85,1.84-4.24,1.46-6.48,1.47-4.74,0-9.48.14-14.22.07-4.21-3.16-4.37-7.67-4.1-12.33a2.77,2.77,0,0,1,2-2C1039.6,52.33,1045.93,51.2,1052.06,54Z"/><path class="cls-115" d="M54.23,187h-7c-.87-2.56,1-4.06,2.4-5.52,9.17-9.25,18.3-18.54,27.64-27.62L85,155.13a1.58,1.58,0,0,1,0,.91,14.77,14.77,0,0,1-3.5,4.8q-11.16,11.1-22.25,22.26A25.61,25.61,0,0,1,54.23,187Z"/><path class="cls-110" d="M1191.22,101.73c-.58-2.41-2.55-1.68-4.07-1.7-4.65-.07-9.3,0-14,0-2,0-4.09.2-5-2.22,3-4.69,7.63-7.07,12.55-9.1a116.1,116.1,0,0,1,14.87-.12c1.91.08,4.59-.5,4.83,2.78A27.33,27.33,0,0,1,1191.22,101.73Z"/><path class="cls-116" d="M879.41,143h20.72q0,6,0,12H879.41Z"/><path class="cls-111" d="M879.4,66q0-6,0-12c7-2.71,14-2.16,21-.3a15.27,15.27,0,0,1,.11,12.49C893.46,68.25,886.42,68.68,879.4,66Z"/><path class="cls-109" d="M1594.08,54.05q0,6,0,12a30.06,30.06,0,0,1-20.77,0q0-6,0-12A29.1,29.1,0,0,1,1594.08,54.05Z"/><path class="cls-117" d="M1197.09,134a30.63,30.63,0,0,1,3.14,11c-1.73,1.74-4,1.44-6.11,1.48-5,.08-10-.16-14.94.67l-4.09-11.86a1.65,1.65,0,0,1,1.47-2.18C1183.44,132.4,1190.37,131,1197.09,134Z"/><path class="cls-118" d="M187.14,24c-1.85-.25-3.12.68-4.36,1.92q-16.21,16.27-32.47,32.49c-1.07,1.07-2.13,2.13-2.15,3.79L145.25,58q19.82-20,39.66-40a6.48,6.48,0,0,1,2.23-.91Q187.14,20.52,187.14,24Z"/><path class="cls-118" d="M61.38,146.64c-4.35,5.93-10.06,10.57-15.14,15.81-6.6,6.81-13.4,13.42-20.08,20.15-1.26,1.27-2.94,2.3-2.93,4.43h-6a16.36,16.36,0,0,1,4.06-5.6q16.28-16.2,32.48-32.48c1.28-1.28,2.37-2.75,3.55-4.13C59.1,144.49,60.26,145.52,61.38,146.64Z"/><path class="cls-113" d="M1647.23,145c.33-2.42,2.21-2,3.79-2,5.75,0,11.5,0,17.25,0,1,3.66,2.63,7.14,2.81,11-5.76,0-11.52.08-17.27,0-2.45-.05-3.79.7-3.66,3.3A53.81,53.81,0,0,1,1647.23,145Z"/><path class="cls-109" d="M1001.36,66a63,63,0,0,1,4-12c6.45-2.34,12.88-2.66,19.26.25,1.25,4.94.26,9.25-3.66,12.71C1014.42,67.46,1007.78,68.89,1001.36,66Z"/><path class="cls-110" d="M1064.2,90a49.37,49.37,0,0,1,3.87,11c-2.06,2-4.66,1.44-7.1,1.47-4.48,0-9,.12-13.45.1-4.23-3.19-5.89-9-3.8-13.25C1050.59,88.22,1057.46,87.23,1064.2,90Z"/><path class="cls-104" d="M1326.27,140h19.81v12h-19.81A29.1,29.1,0,0,1,1326.27,140Z"/><path class="cls-105" d="M1450.26,137q0,6.5,0,13h-18l-.1-2.87c-1.08-3,.07-6.09-.68-9.08l-.11-1.05A24.75,24.75,0,0,1,1450.26,137Z"/><path class="cls-84" d="M975,45a19.92,19.92,0,0,1,4.18,9c-2.19,2.06-4.95,1.49-7.51,1.5-4.77,0-9.55.29-14.31-.23-4.54-2.35-8.76-5-9.88-10.57,6.19-2.51,12.65-.82,19-1.22C969.4,43.31,972.44,43.08,975,45Z"/><path class="cls-84" d="M1670.08,45a24.94,24.94,0,0,1,3.89,9c-1.88,1.84-4.29,1.43-6.56,1.46-5.11.06-10.23,0-15.34.11-4.66-1.84-8.89-7.16-8.64-10.86C1652.34,42.8,1661.23,42.35,1670.08,45Z"/><path class="cls-84" d="M1205.19,54l-23.24.07c-3.81-1.3-5.48-4.78-7.72-7.66-.57-.73,0-1.52.72-2.06,8.83-1.16,17.65-2.12,26.39.59A19.16,19.16,0,0,1,1205.19,54Z"/><path class="cls-119" d="M1008.42,45l2-6A86.35,86.35,0,0,1,1047,39l2.06,6c-6.13,3-12.57,1.11-18.88,1.21-1.28-.38-2.55-1.07-3.92-.22C1020.25,46.34,1014.21,47.8,1008.42,45Z"/><path class="cls-120" d="M1105.3,143h20.78q0,5.5,0,11h-20.78A24,24,0,0,1,1105.3,143Z"/><path class="cls-121" d="M1573.29,141l20.69,0q0,5.49,0,11h-20.7Z"/><path class="cls-122" d="M879.4,101q0-5.5,0-11c7-2.71,14-2.15,21-.31a13.22,13.22,0,0,1,.11,11.5C893.46,103.24,886.41,103.68,879.4,101Z"/><path class="cls-122" d="M989.41,101a52.06,52.06,0,0,1,3.87-11c6.37-2.76,12.88-1.69,19.39-.75,2.25,4,.63,10-3.6,13.3-4.72.05-9.45,0-14.17-.08C993,102.46,990.94,102.62,989.41,101Z"/><path class="cls-123" d="M1687.28,84.92a17.45,17.45,0,0,1-3.19-8.69,1.68,1.68,0,0,1,1.52-2.14c7.15-.66,14.35-2,21.34.93l6.08,8c-.69,1.9-2.37,2.28-4,2.29C1701.77,85.4,1694.5,86.11,1687.28,84.92Z"/><path class="cls-124" d="M1.4,156Q17.53,140,33.66,124.1c1.41-1.4,2.91-2.71,4.37-4.05,1,1.55,2.2,3,2.2,5-2.32,0-3.39,2-4.77,3.31Q18.4,145.11,1.4,162,1.4,159,1.4,156Z"/><path class="cls-124" d="M121.25,37.78c.17-2.27,2.08-3.32,3.44-4.7q15.72-16,31.52-31.93h6Q147.57,16,132.92,30.79a48.79,48.79,0,0,0-7.64,9.05Z"/><path class="cls-113" d="M1179.18,147.14c.4-2.71,2.52-2.11,4.23-2.13,5.6,0,11.21,0,16.82,0,1.54,3.5,2,7.28,2.78,11a48.63,48.63,0,0,0-21.8.08A26.23,26.23,0,0,1,1179.18,147.14Z"/><path class="cls-123" d="M1381.89,75l5,8c-1.59,2.57-4.23,2.33-6.69,2.39-5.32.14-10.65-.13-16,.46A53.43,53.43,0,0,1,1358.1,75a4.72,4.72,0,0,1,4-1.49C1368.71,73.94,1375.5,71.89,1381.89,75Z"/><path class="cls-125" d="M1694.24,37c8.61,2,17.35.49,26,1,1.75.11,4.14-1.13,5,1.74-4.82,1.06-8.86,3.73-12.9,6.37-6.63.78-13.28.32-19.93.3a5,5,0,0,1-4.1-1.45A19.14,19.14,0,0,1,1694.24,37Z"/><path class="cls-126" d="M1381.89,75H1358.1a35.62,35.62,0,0,1-4.89-9,35.33,35.33,0,0,1,22.88,0Z"/><path class="cls-127" d="M1688.3,45c6.48,0,13,0,19.43,0,1.59,0,3.38-.52,4.6,1.13l-5.87,7.9-22,0A21.14,21.14,0,0,1,1688.3,45Z"/><path class="cls-110" d="M1594,100l-20.72,0q0-5,0-10A29.2,29.2,0,0,1,1594,90Q1594,95,1594,100Z"/><path class="cls-17" d="M1450.26,137h-18.85l-.1-11a24.88,24.88,0,0,1,18.92,0Q1450.24,131.5,1450.26,137Z"/><path class="cls-51" d="M1326.27,140q0,6,0,12c0,11.32,0,22.64-.15,34,0,3,.86,4.14,4,4,5.32-.21,10.65-.07,16-.07-6.25,2.15-12.69.52-19,.87-1.47.08-1.83-1.16-1.83-2.44s0-2.66,0-4q.09-68.17.17-136.35c0-2-.1-4-.16-6,.92.64,1.85,1.87,2.75,1.85,11.16-.28,22.38,1.31,33.48-.91l1.46,2.08-30.3,0c-6.36,0-6.37,0-6.34,6.54,0,.83,0,1.66,0,2.48,2.35,3.37,1.22,7.18,1.39,10.82.08,3.33.12,6.66,0,10,.07,2.69.1,5.39,0,8.08.09,2.39.08,4.77,0,7.16.1,3.58.11,7.16,0,10.74.06,2.66.11,5.31,0,8,0,2.33.09,4.66,0,7,0,1.45.06,2.91,0,4.36.06,2.08.09,4.15-1.35,5.88Q1326.28,133,1326.27,140Z"/><path class="cls-28" d="M1047,39h-36.51l2-6H1045Z"/><path class="cls-128" d="M975,45c-9.26.38-18.55-.83-27.78.64a18.26,18.26,0,0,1-12-4.87c-.9-3.28,1.81-1.68,2.67-1.7,7.79-.15,15.58-.14,23.37-.06a23.76,23.76,0,0,0,7.81-1A16.59,16.59,0,0,1,975,45Z"/><path class="cls-129" d="M1374.14,102.17c2.25-2.23,5.06-1,7.6-1.11,5.49-.19,11-.06,16.49-.06a34.85,34.85,0,0,1,5,8,5,5,0,0,1-4,1.46c-6.7,0-13.41.53-20.1-.27A32.24,32.24,0,0,1,1374.14,102.17Z"/><path class="cls-128" d="M1670.08,45c-7.41,0-14.82,0-22.22,0-1.58,0-3.34-.54-4.62,1a19.14,19.14,0,0,1-12-5.27c-.85-3.3,1.87-1.64,2.71-1.65,8.47-.15,16.94-.06,25.42-.12,1.74,0,3.73.64,5-1.26A16.93,16.93,0,0,1,1670.08,45Z"/><path class="cls-130" d="M1326.3,65q0-5.5,0-11l17.84,0c1.35,1.5,0,3.54,1,5.11L1345,64C1339,68.15,1332.67,67.11,1326.3,65Z"/><path class="cls-126" d="M982,67.94c.31,4.08.73,8.17-.7,12.15-1.85-3-4.6-3.62-8-3.7-4.5-.1-9.21,1.28-13.47-1.36a9.55,9.55,0,0,1,.1-9.18c6.33-2.57,12.86-1.27,19.33-1C981,65,981.69,66.37,982,67.94Z"/><path class="cls-131" d="M1707,75c-6.11,0-12.22,0-18.32,0-1.59,0-3.37-.46-4.54,1.21-1.09-1.58-1-3.36-.89-5.14-.4-3.65.68-5.57,4.9-5.17a75.48,75.48,0,0,0,12,0c2.57-.17,4.06.74,4.93,3Z"/><path class="cls-128" d="M1201.34,45c-7.45,0-14.9,0-22.35.06-1.6,0-3.34-.49-4.74.81-4.48.11-7.9-2.09-11-5-.94-3.24,1.74-1.73,2.64-1.75,8.12-.13,16.24-.07,24.37-.08,2,0,4,.26,5.78-.94C1198.28,40,1200.45,42,1201.34,45Z"/><path class="cls-103" d="M77.27,153.89c0,2.3-1.86,3.41-3.22,4.78q-11.36,11.44-22.8,22.79a16.18,16.18,0,0,0-4,5.57h-5a4.49,4.49,0,0,1,1.16-3.67c10.36-10.07,20.09-20.79,30.91-30.4C75.39,153,76.49,152.92,77.27,153.89Z"/><path class="cls-132" d="M1703.28,101.9c1.53-1.51,3.46-.86,5.21-.87,13.6-.06,27.2,0,40.8,0a17.59,17.59,0,0,1,7.2,3.91c-1.18,1.44-2.88,1.63-4.53,1.62-13.91-.12-27.84.73-41.74-.5A18.94,18.94,0,0,1,1703.28,101.9Z"/><path class="cls-126" d="M1035.22,67.06c4.35-2.19,9-.62,13.5-1,2.45-.22,4.94,0,7.41,0l3.05,9c-2,2-4.64,1.44-7.07,1.47-4.47.06-8.94.1-13.41.1C1034.75,74.44,1033.88,71.15,1035.22,67.06Z"/><path class="cls-123" d="M1038.22,76.06c4.36-2.19,9-.62,13.53-1,2.46-.22,4.95,0,7.43,0l2.82,8.06c-1.14,2.44-3.44,2.32-5.55,2.36-5,.1-9.92.07-14.88.15C1037.76,83.34,1036.79,80.12,1038.22,76.06Z"/><path class="cls-133" d="M1206.3,76.09a20.06,20.06,0,0,1-3,10c-5.08-.8-10.21-.55-15.32-.61-1.81,0-3.65,0-5.31-.89-1.29-4.15.37-7.34,3.32-10.1,5.85-1.86,11.81-1,17.73-.69C1204.9,73.84,1206.42,74.2,1206.3,76.09Z"/><path class="cls-91" d="M1710.23,106c1.45-1.64,3.4-1,5.13-1,13.71-.09,27.42-.1,41.13-.14a13.81,13.81,0,0,1,6,4c-13,0-26,0-39,.12-1.76,0-3.7-.64-5.23.87A23,23,0,0,1,1710.23,106Z"/><path class="cls-123" d="M1675.15,75a21.57,21.57,0,0,1-2.85,10.11c-6.93.41-13.87,1.21-20.74-.55-1.79-4.34,0-7.58,3.19-10.41C1661.59,73.46,1668.46,72.12,1675.15,75Z"/><path class="cls-51" d="M900.18,101l0-11c-1.48-1.8-1.37-3.95-1.34-6.07-.11-3-.09-6,0-9s-.69-6.18,1.38-8.89q0-6,0-12c-1-7.58-6.1-8.19-12.28-7.62-2.83.26-6,.75-8.49-1.4q0-3,0-6c6.26,0,12.53,0,18.79,0,1.52,0,3.46-.66,4,1.72a17.28,17.28,0,0,1,.52,2.42c.18,19.53.15,39.05,0,58.58a5.89,5.89,0,0,1-1.36,4.15l-1.21-.89A3,3,0,0,1,900.18,101Z"/><path class="cls-134" d="M1197.09,134c-5.82,0-11.64,0-17.46,0-1.6,0-3.4-.48-4.54,1.27l-6.23-9.18a3.27,3.27,0,0,1,2.53-1.38c7.31,0,14.73-1.87,21.86,1.27A19.34,19.34,0,0,1,1197.09,134Z"/><path class="cls-112" d="M1659.29,102.09c-1.75-1.9-4-.89-6.09-1.06-7.35-.6-14.82,1.16-22.09-1.08,3.34-4.4,8.5-5.43,13.27-7.22a154.94,154.94,0,0,1,17.15-.16c1.79,0,4.1-.34,4.69,2.36A19.67,19.67,0,0,1,1659.29,102.09Z"/><path class="cls-123" d="M960.41,75c5.16,0,10.34.25,15.48-.09,4-.26,6,.92,5.39,5.17,0,1.76.24,3.55-.91,5.1-5.44.67-10.88.27-16.33.16a7,7,0,0,1-5-1.92C957.47,80.3,958.12,77.52,960.41,75Z"/><path class="cls-126" d="M1326.3,65c6.23-.45,12.55.91,18.7-1l.18,11a25,25,0,0,1-18.88,0Q1326.31,70,1326.3,65Z"/><path class="cls-135" d="M1206.3,76.09c-4.35-2.24-9-.65-13.5-1-2.45-.22-4.94,0-7.41,0q-.37-.36-.22-.68t.28-.32c.1-.13.26-.25.29-.39,1.71-7.62,1.71-7.62,10-7.62h11.34C1207.16,69.39,1207.82,72.83,1206.3,76.09Z"/><path class="cls-126" d="M900.18,66v9a29.84,29.84,0,0,1-20.76,0V66Z"/><path class="cls-127" d="M1029.16,45H1049l3,9h-15.81c-1.79,0-3.79-.33-4.16,2.28C1028.29,53.27,1027.56,49.45,1029.16,45Z"/><path class="cls-126" d="M1573.29,66l20.77,0q0,4.5,0,9a30,30,0,0,1-20.74,0Z"/><path class="cls-126" d="M1675.15,75h-21a8.06,8.06,0,0,1,0-9.38c6.23-2.25,12.71-1.74,18.91-.61,4.65.84,2.23,5.21,2.19,8.21Z"/><path class="cls-84" d="M1594.08,54.05,1573.3,54q0-4.5,0-9a29.34,29.34,0,0,1,20.8,0Q1594.09,49.54,1594.08,54.05Z"/><path class="cls-123" d="M879.41,75h20.76q0,4.5,0,9a29.77,29.77,0,0,1-20.77,0Q879.4,79.51,879.41,75Z"/><path class="cls-136" d="M879.41,45c5,0,10,.32,14.94-.1S901,46.34,900.26,51a21.38,21.38,0,0,0-.07,3l-20.78,0Q879.41,49.51,879.41,45Z"/><path class="cls-137" d="M1573.3,75,1594,75q0,4.49,0,9a29.83,29.83,0,0,1-20.74,0Z"/><path class="cls-138" d="M1687.28,84.92c3.74-1.94,7.74-.49,11.6-.91,4.7-.5,9.55,1,14.15-1l11.12,7a4.14,4.14,0,0,1-3.12,1.34c-9.93.11-19.87.77-29.79-.38A14.24,14.24,0,0,1,1687.28,84.92Z"/><path class="cls-139" d="M1691.24,91c1.3-1.51,3.06-1,4.65-1,9.42,0,18.84,0,28.26,0a34.3,34.3,0,0,1,8.4,3.86c-10.15,2.31-20.45.55-30.66,1.14-1.81.1-4.22-.86-4.73,2.17A18.14,18.14,0,0,1,1691.24,91Z"/><path class="cls-140" d="M1001.36,66h19.94c1.46,4.29.17,7.6-3.57,10.05-6.51.28-13.09,1.84-19.42-1.06A33.76,33.76,0,0,1,1001.36,66Z"/><path class="cls-133" d="M998.31,75l20.12,0c1.2,4.25.08,7.64-3.74,10-6.51.26-13.09,1.84-19.42-1.07A38,38,0,0,1,998.31,75Z"/><path class="cls-141" d="M1326.31,75h18.88c1.42,12,.84,24,.91,36-1.59,0-1.73-1.3-2.06-2.42a57.25,57.25,0,0,1-.22-7.86c-.13-3.51-.12-7,0-10.52-.48-5.62-.5-5.51-6.08-5.78-3.82-.19-7.86,1.08-11.41-1.41Q1326.31,79,1326.31,75Z"/><path class="cls-142" d="M24.23,103.06A108.12,108.12,0,0,1,1.41,126q0-4.5,0-9c4.29-4.95,9.07-9.42,13.82-13.91Z"/><path class="cls-84" d="M1008.42,45h18.7c1.58,4.08.51,7.44-2.78,10.2-4-2.6-8.34-.67-12.49-1.16a54.39,54.39,0,0,0-6.44,0Z"/><path class="cls-143" d="M1776.47,125.9l-26.61.2-6.64-5.07c0-1.83,1.45-2.21,2.68-2.29a162.27,162.27,0,0,1,24.65.07,6.64,6.64,0,0,1,2.7,1.19A12.34,12.34,0,0,1,1776.47,125.9Z"/><path class="cls-129" d="M1047.12,102.25c2.54-2.43,5.67-1,8.52-1.19,4.13-.24,8.28-.06,12.43-.05l3.05,9a82.41,82.41,0,0,1-21.35-.12C1047,108,1045.67,105.6,1047.12,102.25Z"/><path class="cls-85" d="M1773.25,120c-8.29,0-16.59,0-24.88,0-1.74,0-3.7-.66-5.15,1l-8-4.19c1.19-2.25,3.32-1.84,5.29-1.84q14.24,0,28.47,0C1770.62,116.51,1772.54,117.74,1773.25,120Z"/><path class="cls-129" d="M989.41,101c5.12,0,10.24,0,15.35,0,1.58,0,3.37-.51,4.55,1.16,1.23,3.87.53,7-3.25,9.13-4.71-1.4-9.54-.73-14.33-.88-1.8-.05-3.65.44-5.38-.44Z"/><path class="cls-144" d="M873.23,60.76q-.05-.88-.1-1.76,0-3,0-6t0-6q0-4.5,0-9c.4-14,.4-14-13.33-14H743.49c1.24-1.74,3-.82,4.55-.82,40.3-.06,80.61,0,120.91-.14,4.14,0,5.39,1,5.25,5.21-.32,9.48,0,19-.14,28.47C874.05,58.06,875,59.74,873.23,60.76Z"/><path class="cls-145" d="M1629.3,120.75c6.21-1.66,12.54-.36,18.8-.72,3.15-.18,6.33-.11,9.49-.15A15.83,15.83,0,0,1,1662,126c-6.39,0-12.77,0-19.16,0-1.57,0-3.32-.53-4.6,1A40.06,40.06,0,0,0,1629.3,120.75Z"/><path class="cls-146" d="M15.27,84.83Q28.59,71.37,41.93,57.92a5.73,5.73,0,0,1,1.77-.81L36.21,72c-4.36,4.24-8.28,8.92-13,12.83Z"/><path class="cls-147" d="M1675.32,73.21c-.21-7.21-.21-7.21-7.67-7.21h-13.35c-2.86-1.7-2.57-4.11-1.52-6.7a5,5,0,0,1,4.42-1.74c6,.35,12.13-1.58,17.87,1.44C1676,63.72,1676.92,68.44,1675.32,73.21Z"/><path class="cls-66" d="M1193.25,126l-24.39.11-7.59-5.21c4.41-2,9-.6,13.55-.84,4.75-.25,9.53,0,14.29,0A13,13,0,0,1,1193.25,126Z"/><path class="cls-147" d="M982,67.94c-1.1-1.8-2.79-2-4.73-2-5.66.09-11.31,0-17,0-2.51-1.29-2.36-3.39-1.72-5.64a3.36,3.36,0,0,1,2.07-2,45.94,45.94,0,0,1,18.65-.09A2.6,2.6,0,0,1,981,60C981.51,62.59,982.42,65.18,982,67.94Z"/><path class="cls-54" d="M1379.14,110.18c2-2.16,4.63-1.06,7-1.12,5.72-.17,11.45-.06,17.17-.06a19.49,19.49,0,0,1,3.79,6c-1.25,1.38-3,1.47-4.6,1.47-6.48,0-13,.38-19.43-.14A20.58,20.58,0,0,1,1379.14,110.18Z"/><path class="cls-138" d="M1364.28,85.88c.57-2.75,2.79-1.73,4.42-1.85,6.07-.45,12.23.92,18.22-1l4.32,7c-6.43,0-12.86,0-19.29,0-1.58,0-3.34-.55-4.67.89A13,13,0,0,1,1364.28,85.88Z"/><path class="cls-145" d="M1413.26,126l-24.14,0a11.44,11.44,0,0,1-3-4.8,1.71,1.71,0,0,1,1.55-2.15c7.51-.73,15.07-2,22.44.92C1411.42,121.86,1413.09,123.53,1413.26,126Z"/><path class="cls-147" d="M1376.1,66h-22.88a12.84,12.84,0,0,1-3.12-6c1.37-1.51,3.25-1.63,5-1.51,5.38.37,10.81-1.13,16.14.47A20.48,20.48,0,0,1,1376.1,66Z"/><path class="cls-138" d="M959.29,83c5.1,1.74,10.38.69,15.58,1,1.87.12,4-.73,5.5,1.17a12.4,12.4,0,0,1-2.09,6.89c-.42-2.7-2.55-2.05-4.23-2.06-5.89,0-11.78,0-17.67,0C955.67,87,956.81,84.71,959.29,83Z"/><path class="cls-61" d="M1345.15,109l.95,2q0,2.51,0,5a27.43,27.43,0,0,1-19.78,0q0-3.5,0-7A24.47,24.47,0,0,1,1345.15,109Z"/><path class="cls-138" d="M1651.29,84c5.47,0,10.94,0,16.41,0,1.59,0,3.37-.52,4.61,1.09a11.89,11.89,0,0,1-3,5.93c-7.07.62-14.13,1-21.18-.22C1645.92,87,1648.09,85.29,1651.29,84Z"/><path class="cls-138" d="M1182.53,84c5.64,0,11.28,0,16.92,0,1.61,0,3.49-.38,3.82,2.05a9.56,9.56,0,0,1-2.83,5.28c-1.75-2.28-4.23-1.21-6.39-1.29-5.06-.19-10.13-.15-15.19-.2C1178.51,86.91,1179.85,85,1182.53,84Z"/><path class="cls-54" d="M1049.31,109c7.26.51,14.62-1.1,21.81,1l1.81,5c-1.88,1.85-4.29,1.35-6.55,1.44-4.59.18-9.24-.42-13.76.85C1048.74,115.64,1048.26,112.62,1049.31,109Z"/><path class="cls-148" d="M1041.22,85.06c3-2.12,6.38-.65,9.57-1,3.72-.46,7.6.88,11.21-1A22.08,22.08,0,0,1,1064.2,90l-21.27.08C1040.62,89,1040.12,87.3,1041.22,85.06Z"/><path class="cls-149" d="M1371.27,59c-7,2-14.12.56-21.17,1a15.69,15.69,0,0,1-3-6l21.31-.1C1369.66,55.46,1371.11,56.87,1371.27,59Z"/><path class="cls-150" d="M171.24,103.05c-7.34,7.58-14,15.82-22.79,22L154,111.92c3.2-2.83,6-6.1,9.21-8.87Z"/><path class="cls-151" d="M1410.09,120c-6.48,0-13,0-19.43,0-1.6,0-3.39-.49-4.56,1.22a12.12,12.12,0,0,1-3.07-4.89c1.24-1.89,3.2-1.31,4.92-1.32,6.37-.05,12.74,0,19.11,0Z"/><path class="cls-128" d="M1594.1,45l-20.8,0V39c5.08,0,10.17.3,15.22-.09S1595.14,40.34,1594.1,45Z"/><path class="cls-143" d="M1105.33,120l20.74,0v6h-20.75A7.1,7.1,0,0,1,1105.33,120Z"/><path class="cls-152" d="M879.4,84h20.77q0,3,0,6H879.41Q879.41,87,879.4,84Z"/><path class="cls-152" d="M1573.29,84,1594,84q0,3,0,6l-20.72,0Z"/><path class="cls-143" d="M1594,126.11l-20.72-.1q0-3,0-6c5.09,0,10.2.32,15.26-.09S1595.07,121.51,1594,126.11Z"/><path class="cls-79" d="M986.36,110c6.12-2,12.39-.68,18.59-.79.86,0,1.16,1,1.32,1.87,1.43,2.8,1,5-2.09,6.25-4.73-1.38-9.59-.76-14.4-.89-1.81,0-3.67.45-5.41-.44Z"/><path class="cls-80" d="M947.32,100c8.7,2.11,17.56.34,26.32,1.1a8.44,8.44,0,0,1-3.16,3.95q-12.21,0-24.42-.07c-2,0-4,.13-5.8-1C941.35,100.44,944,99.73,947.32,100Z"/><path class="cls-138" d="M995.27,84l20.16,0c1.14,2.62.85,4.75-2,6l-20.11,0A14.2,14.2,0,0,1,995.27,84Z"/><path class="cls-153" d="M104.32,23c.22,3.26-.86,6.63.89,9.75-2.76-.22-1.77-2.37-1.79-3.78-.1-5.29,0-10.59,0-15.89a8.14,8.14,0,0,0,.62-1.86C104.85.85,104.84.84,115.25,1c.66,0,1.33.09,2,.14,1.19,1.66-.06,2.79-.94,3.93a20.33,20.33,0,0,1-3.45,3.57C108.15,12.35,105,16.94,104.32,23Z"/><path class="cls-154" d="M981,60c-6.48-1.92-13.09-.7-19.65-.75-1,0-1.67,1-2.12,1.89-3.09-1.41-3.69-4-3.24-7L979.21,54A13.55,13.55,0,0,1,981,60Z"/><path class="cls-143" d="M1326.29,126q0-3,0-6a27.21,27.21,0,0,1,19.77,0q0,3,0,6Z"/><path class="cls-149" d="M1675.07,59c-5.77,0-11.55,0-17.32,0-1.58,0-3.36-.52-4.57,1.11-2.69-.86-2.95-2.69-2-5,2.93-2.26,6.32-.89,9.48-1.07,4.42-.25,8.87-.06,13.3-.06C1674.49,55.64,1675.31,57.21,1675.07,59Z"/><path class="cls-155" d="M15.23,103.05A41.39,41.39,0,0,1,1.41,117L1.29,103Z"/><path class="cls-143" d="M1450.23,126H1431.3l-.27-1.8.44-4.18a24.52,24.52,0,0,1,18.74,0Z"/><path class="cls-156" d="M127.24,147c-7.18,8.11-15,15.63-22.88,23-1.48-3.81-.57-7,2.31-9.82a105.89,105.89,0,0,1,8.44-7.56Z"/><path class="cls-151" d="M1052.16,117.18c.4-2.73,2.53-2.15,4.27-2.16,5.5,0,11,0,16.49,0l1.49,4.93c-7.41.62-14.92-1-22.25,1C1051.26,119.71,1051,118.44,1052.16,117.18Z"/><path class="cls-157" d="M1760.43,23.93h-44.38C1730.84,19.17,1745.64,19.75,1760.43,23.93Z"/><path class="cls-158" d="M697.36,78q-.05,3.49-.1,7l-1.07,0c.06-18.76.31-37.53.06-56.28-.06-4.77,1.45-5.73,5.84-5.62,11.45.29,22.91.06,34.37.15,1.5,0,3.3-.92,4.53.83-12.95,0-25.9.17-38.84-.09-4.09-.08-5.27,1.31-4.94,5.13.29,3.3.11,6.63.14,10q0,6.5,0,13,0,7,0,14Q697.36,72,697.36,78Z"/><path class="cls-159" d="M984.36,116c6.12-2,12.39-.68,18.59-.79.86,0,1.16,1,1.32,1.87.78,1.3,1.17,2.49-.86,3L983.12,120A7,7,0,0,1,984.36,116Z"/><path class="cls-160" d="M1647.25,90c5.79,0,11.59,0,17.38,0,1.59,0,3.36-.54,4.63,1-.63,1.6-1.29,3.17-3,3.88-5.11-2.07-10.44-.46-15.64-.89-2.47-.2-5-.06-7.46-.08C1643.25,91.34,1644.41,89.79,1647.25,90Z"/><path class="cls-161" d="M1105.33,120q0,3,0,6,0,8.49,0,17,0,5.5,0,11c0,10.64,0,21.28-.14,31.91,0,3,.8,4.16,3.93,4,5.64-.21,11.3-.05,17-.05-6.59,2.08-13.34.56-20,.79-2.16.07-1.8-2-1.79-3.42q.07-33.64.18-67.27c.26-.47.53-.45.79,0Z"/><path class="cls-162" d="M115.12,152.64c-1.42,3.48-4.52,5.53-7.09,7.94-2.86,2.68-4.53,5.48-3.66,9.44q0,3,0,6,0,2,0,4-.25,3.41-.51,6.82c-1.09-9.7-.15-19.44-.48-29.15-.07-1.94.87-2.45,2.6-2.78C109.06,154.32,112.08,153.41,115.12,152.64Z"/><path class="cls-86" d="M900.18,101q0,2,0,4H879.41q0-2,0-4Z"/><path class="cls-163" d="M1346.07,120H1326.3q0-2,0-4h19.78Z"/><path class="cls-164" d="M23.24,84.83A34.69,34.69,0,0,1,36.21,72a25.88,25.88,0,0,0-1.66,4.49c-.5,2.82.21,6.79-2.18,8S26.33,84.82,23.24,84.83Z"/><path class="cls-165" d="M163.24,103.05c-1.95,4.12-4.71,7.4-9.21,8.87a15.88,15.88,0,0,0,.58-2.87C154.72,103,158.15,101.86,163.24,103.05Z"/><path class="cls-166" d="M178.25,84.85A57,57,0,0,1,187.15,76q0,4.39.07,8.79Z"/><path class="cls-64" d="M211.59,190l43.65,0c-11.6,1.27-23.23.28-34.85.5C217.47,190.61,214.46,191.25,211.59,190Z"/><path class="cls-66" d="M879.57,190l20.71.06A68.52,68.52,0,0,1,879.57,190Z"/><path class="cls-85" d="M1573.5,190l20.64,0A61.69,61.69,0,0,1,1573.5,190Z"/><path class="cls-167" d="M1345.13,59.12c-1.32-1.51-.5-3.44-1-5.11.41-1-.66-2.74.86-3.11.86-.21,1.22,1.16,1.21,2.14C1344.39,54.81,1345.8,57.15,1345.13,59.12Z"/><path class="cls-17" d="M1431.51,138.05c1.49,2.93.44,6.06.68,9.08A25.64,25.64,0,0,1,1431.51,138.05Z"/><path class="cls-44" d="M1105.3,105q0,2,0,4l-.14-.06q-.36.69-.77,0,0-4,0-8l.77,0Q1105.24,103,1105.3,105Z"/><path class="cls-168" d="M1432.39,156.86c1,1.21.79,2.62.69,4.29a2.5,2.5,0,0,1-1.74-2.25Z"/><path class="cls-51" d="M1104.41,109l.77,0q0,3,0,6-.39.67-.8,0Z"/><path class="cls-127" d="M1104.39,115h.8q0,.5.08,1,0,2-.08,4h-.79Q1104.4,117.51,1104.39,115Z"/><path class="cls-169" d="M72.23,187h-12c-.69-1.8.67-2.79,1.65-3.79q9.7-9.9,19.61-19.61c1-1,2-2.34,3.79-1.65v12A47.67,47.67,0,0,1,72.23,187Z"/><path class="cls-100" d="M85.27,162a338.24,338.24,0,0,0-25,25h-6c9.82-10.79,20.28-21,30.85-31A11.65,11.65,0,0,1,85.27,162Z"/><path class="cls-170" d="M72.23,187A92.62,92.62,0,0,1,85.29,174C85.4,190.36,88.6,187.16,72.23,187Z"/><path class="cls-171" d="M1.4,62q0-30.44,0-60.87H62.25c1.36,2.21-.47,3.43-1.65,4.62Q33.4,33.14,6,60.33C4.83,61.51,3.62,63.35,1.4,62Z"/><path class="cls-172" d="M1.4,62c1.9-.06,2.86-1.54,4-2.69Q32.51,32.25,59.58,5.15C60.73,4,62.2,3,62.25,1.13h12c1.37,2.22-.47,3.43-1.65,4.62Q39.4,39.13,6,72.33c-1.19,1.18-2.4,3-4.62,1.67Z"/><path class="cls-173" d="M1.4,74c2.09-.1,3.1-1.79,4.36-3Q38.52,38.25,71.22,5.49c1.26-1.26,2.95-2.27,3-4.37h6C76.06,5.41,72,9.75,67.75,14Q36.62,45.16,5.43,76.29c-1.29,1.28-2.69,2.45-4,3.67Q1.4,77,1.4,74Z"/><path class="cls-142" d="M104.32,23c-.88-5.24.59-9.26,4.95-12.77,3.07-2.47,6.62-4.94,8-9.09h9A99.19,99.19,0,0,1,104.32,23Z"/><path class="cls-121" d="M1491,141q0,6,0,12h-20.52q0-6,0-12A28.91,28.91,0,0,1,1491,141Z"/><path class="cls-65" d="M786.51,148q0-6,0-12c1.54-1.65,3.6-1.56,5.57-1.58q16.17-.12,32.35,0c2,0,4-.07,5.57,1.58q0,6,0,12Z"/><path class="cls-174" d="M387.51,148V135c1.54-1.65,3.6-1.56,5.57-1.58q16.17-.12,32.34,0c2,0,4-.07,5.57,1.57q0,6.5,0,13Z"/><path class="cls-175" d="M187.22,187h-73c1.76-4.83,66.3-69.92,73-73.48,0,24.72,0,49.1,0,73.47Z"/><path class="cls-92" d="M1491,141h-20.52q0-7.48,0-15a27.92,27.92,0,0,1,20.53.06Z"/><path class="cls-126" d="M1491.06,66l0,9a30,30,0,0,1-20.59,0q0-4.5,0-9A28.72,28.72,0,0,1,1491.06,66Z"/><path class="cls-176" d="M1491.1,45q0,4.5,0,9a30.1,30.1,0,0,1-20.67,0q0-4.5,0-9A28.89,28.89,0,0,1,1491.1,45Z"/><path class="cls-137" d="M1470.45,75H1491q0,4.49,0,9a29.8,29.8,0,0,1-20.58,0Q1470.45,79.53,1470.45,75Z"/><path class="cls-152" d="M1470.45,84H1491q0,3,0,6h-20.55Q1470.46,87,1470.45,84Z"/><path class="cls-143" d="M1491,126.1l-20.53-.06q0-3,0-6a28.59,28.59,0,0,1,20.57,0Q1491,123.08,1491,126.1Z"/><path class="cls-149" d="M1470.41,54h20.67q0,3,0,6a29.83,29.83,0,0,1-20.65,0Z"/><path class="cls-177" d="M1470.42,60h20.65q0,3,0,6h-20.63Q1470.43,63,1470.42,60Z"/><path class="cls-163" d="M1491,120.05l-20.57,0q0-2.5,0-5c5.31,0,10.63.23,15.91-.1C1490.49,114.67,1491.9,116.16,1491,120.05Z"/><path class="cls-51" d="M1491.1,45h-20.7q0-2,0-4c5.66,0,11.32.1,17-.08C1490.46,40.85,1491.7,42,1491.1,45Z"/><path class="cls-161" d="M1105.3,66q0-6,0-12c7-2.75,14-2.15,21.09-.33a13.82,13.82,0,0,1,.12,12.51C1119.42,68.3,1112.35,68.63,1105.3,66Z"/><path class="cls-110" d="M1126.2,101h-20.91q0-5.5,0-11c7-2.74,14-2.13,21.05-.34C1128.36,93.48,1128.54,97.27,1126.2,101Z"/><path class="cls-131" d="M1105.3,66h20.78c2.45,3,2,6.12.33,9.28-7.06,1.88-14.1,2.4-21.1-.28Q1105.31,70.52,1105.3,66Z"/><path class="cls-123" d="M1105.31,75h20.77c2.45,3,2,6.12.34,9.28-7.06,1.89-14.11,2.4-21.11-.28Q1105.3,79.51,1105.31,75Z"/><path class="cls-127" d="M1126.07,54H1105.3q0-4.5,0-9c7-2.74,14-2.13,21.06-.34C1128.14,47.84,1128.54,51,1126.07,54Z"/><path class="cls-152" d="M1105.3,84h20.78c1.84,2,1.85,4,0,6h-20.76Q1105.31,87,1105.3,84Z"/><path class="cls-51" d="M1126.07,45H1105.3q0-2.5,0-5c7,.51,14.09-1.2,21,1C1127.25,42.4,1127.46,43.75,1126.07,45Z"/><path class="cls-178" d="M830,136H786.5q0-6,0-12c1.54-1.65,3.6-1.57,5.57-1.58q16.18-.12,32.36,0c2,0,4-.07,5.57,1.58Q830,130,830,136Z"/><path class="cls-39" d="M830,124H786.49q0-5.5,0-11c1.54-1.64,3.6-1.56,5.57-1.57q16.18-.12,32.36,0c2,0,4-.07,5.57,1.57Q830,118.52,830,124Z"/><path class="cls-94" d="M830,86q0,5.5,0,11c-1.56,1.61-3.62,1.52-5.59,1.54q-16.17.11-32.35,0c-2,0-4,.07-5.59-1.54q0-5.5,0-11c1.54-1.63,3.6-1.57,5.58-1.58q16.2-.12,32.4,0C826.41,84.45,828.47,84.39,830,86Z"/><path class="cls-57" d="M830,86H786.46q0-5,0-10c1.55-1.63,3.61-1.57,5.58-1.58q16.2-.11,32.41,0c2,0,4,0,5.58,1.58Q830,81,830,86Z"/><path class="cls-46" d="M830,76H786.45c-.64-10-.64-10,9.12-10h28.32c6.39,0,6.4,0,6.33,6.55C830.21,73.71,830.09,74.86,830,76Z"/><path class="cls-179" d="M786.48,97H830q0,4.5,0,9c-1.55,1.62-3.61,1.53-5.58,1.54q-16.17.11-32.35,0c-2,0-4,.07-5.58-1.54Q786.48,101.52,786.48,97Z"/><path class="cls-20" d="M786.48,106H830q0,3.5,0,7H786.49Q786.49,109.52,786.48,106Z"/><path class="cls-180" d="M387.5,122V107c1.54-1.64,3.6-1.56,5.57-1.57q16.18-.12,32.35,0c2,0,4-.07,5.57,1.57v15c-1.56,1.61-3.61,1.52-5.58,1.53q-16.16.11-32.31,0C391.12,123.55,389.06,123.64,387.5,122Z"/><path class="cls-178" d="M387.5,122H431q0,6.49,0,13H387.5Q387.5,128.52,387.5,122Z"/><path class="cls-32" d="M387.47,57l0-13c1.55-1.63,3.6-1.57,5.58-1.59q16.21-.12,32.41,0c2,0,4,0,5.58,1.59l0,13c-1.56,1.6-3.62,1.52-5.59,1.53q-16.18.11-32.36,0C391.09,58.55,389,58.63,387.47,57Z"/><path class="cls-29" d="M431,107H387.49q0-6,0-12c1.54-1.64,3.6-1.56,5.57-1.58q16.18-.12,32.36,0c2,0,4-.07,5.57,1.58Q431,101,431,107Z"/><path class="cls-181" d="M431,44H387.45c-.74-12-.74-12,11.1-12H424.9c6.33,0,6.34,0,6.32,6.56C431.21,40.38,431.09,42.2,431,44Z"/><path class="cls-47" d="M431,95h-43.5q0-5.5,0-11c1.54-1.64,3.6-1.56,5.57-1.58q16.18-.12,32.37,0c2,0,4-.06,5.57,1.58Z"/><path class="cls-57" d="M431,84H387.48q0-5,0-10c1.54-1.64,3.6-1.56,5.57-1.57q16.19-.12,32.37,0c2,0,4-.06,5.57,1.57Z"/><path class="cls-182" d="M387.47,57H431q0,4.5,0,9c-1.56,1.61-3.62,1.53-5.59,1.54q-16.18.11-32.36,0c-2,0-4,.07-5.59-1.54Q387.47,61.52,387.47,57Z"/><path class="cls-183" d="M387.48,66H431q0,4,0,8H387.48Q387.48,70,387.48,66Z"/><path class="cls-184" d="M1253.22,190q.13-16.51.25-33a29.55,29.55,0,0,1,20.76,0c0,9.6-.06,19.21.15,28.8.08,3.32-1.08,4.29-4.28,4.18-5.62-.19-11.25,0-16.88,0Z"/><path class="cls-73" d="M1253.48,144q0-9,0-18a28.89,28.89,0,0,1,20.69,0q0,9,0,18A29.68,29.68,0,0,1,1253.48,144Z"/><path class="cls-185" d="M1253.48,144h20.74q0,6.5,0,13h-20.76Q1253.47,150.51,1253.48,144Z"/><path class="cls-111" d="M1274.19,54V66a30.44,30.44,0,0,1-20.76,0q0-6,0-12A28.88,28.88,0,0,1,1274.19,54Z"/><path class="cls-110" d="M1274.16,90q0,5.5,0,11a30,30,0,0,1-20.7,0V90A29,29,0,0,1,1274.16,90Z"/><path class="cls-131" d="M1253.41,66.06l20.76,0q0,4.49,0,9a30,30,0,0,1-20.73,0Q1253.42,70.55,1253.41,66.06Z"/><path class="cls-136" d="M1274.19,54l-20.8,0C1253,45,1253,45,1262,45c1.16,0,2.31,0,3.47,0C1275.21,45.23,1274.24,43.16,1274.19,54Z"/><path class="cls-123" d="M1253.44,75l20.73,0q0,4.5,0,9a30,30,0,0,1-20.73,0Q1253.44,79.54,1253.44,75Z"/><path class="cls-186" d="M1253.47,101l20.7,0q0,4,0,8a29.88,29.88,0,0,1-20.69,0Q1253.48,105,1253.47,101Z"/><path class="cls-61" d="M1253.48,109l20.69,0q0,3.5,0,7a29.72,29.72,0,0,1-20.71,0Q1253.48,112.52,1253.48,109Z"/><path class="cls-152" d="M1253.44,84l20.73,0q0,3,0,6l-20.69,0Q1253.46,87,1253.44,84Z"/><path class="cls-143" d="M1274.19,126l-20.69,0q0-3,0-6a29.16,29.16,0,0,1,20.69,0Q1274.18,123,1274.19,126Z"/><path class="cls-163" d="M1274.18,120l-20.69,0q0-2,0-4h20.71Q1274.18,118,1274.18,120Z"/><path class="cls-149" d="M1431.3,66V54a24.59,24.59,0,0,1,18.88,0V66A25.2,25.2,0,0,1,1431.3,66Z"/><path class="cls-187" d="M1431.29,101q0-5.5,0-11a24.69,24.69,0,0,1,18.87,0l0,11A25,25,0,0,1,1431.29,101Z"/><path class="cls-131" d="M1431.3,66h18.88q0,4.5,0,9a25,25,0,0,1-18.86,0Q1431.3,70.52,1431.3,66Z"/><path class="cls-123" d="M1431.31,75h18.87q0,4.5,0,9a25,25,0,0,1-18.88,0Q1431.3,79.51,1431.31,75Z"/><path class="cls-176" d="M1450.18,54H1431.3q0-4.5,0-9a24.53,24.53,0,0,1,18.88,0Q1450.18,49.52,1450.18,54Z"/><path class="cls-186" d="M1431.29,101h18.91q0,4,0,8a25,25,0,0,1-18.91,0Q1431.29,105,1431.29,101Z"/><path class="cls-54" d="M1431.29,109h18.91q0,3.5,0,7a24.86,24.86,0,0,1-18.75,0Z"/><path class="cls-44" d="M1431.29,39c-.08-7-.08-7,6.73-7h5.43c6.82,0,6.82,0,6.73,7A25.09,25.09,0,0,1,1431.29,39Z"/><path class="cls-152" d="M1431.3,84h18.88q0,3,0,6H1431.3Q1431.3,87,1431.3,84Z"/><path class="cls-128" d="M1431.29,39h18.9q0,3,0,6H1431.3Q1431.3,42,1431.29,39Z"/><path class="cls-163" d="M1431.47,116h18.75q0,2,0,4l-18.74,0Q1431.47,118,1431.47,116Z"/><path class="cls-110" d="M1345.16,90q0,5.5,0,11a25.16,25.16,0,0,1-18.85,0q0-5.5,0-11A24.44,24.44,0,0,1,1345.16,90Z"/><path class="cls-186" d="M1326.31,101l18.85,0q0,4,0,8h-18.84Q1326.31,105,1326.31,101Z"/><path class="cls-152" d="M1345.16,90h-18.84q0-3.5,0-7l12,0C1345.27,83,1345.27,83,1345.16,90Z"/></g></g></g></svg>
